<svg width="135" height="142" viewBox="0 0 135 142" fill="none" xmlns="http://www.w3.org/2000/svg">
<path d="M0 37.9131H134.888V69.9592V96.3161C134.888 99.8424 133.027 103.107 129.992 104.902L72.5247 138.907C69.3913 140.761 65.4967 140.761 62.3633 138.907L4.89625 104.902C1.86145 103.107 0 99.8424 0 96.3161V37.9131Z" fill="url(#paint0_linear_2348_1812)"/>
<path d="M67.9715 3.84679C69.6369 3.84679 71.2044 4.23867 72.674 5.1204L116.172 30.2985C119.111 31.964 120.875 35.099 120.875 38.43V88.6883C120.875 92.0192 119.111 95.1543 116.172 96.8197L72.674 121.998C71.2044 122.781 69.6369 123.271 67.9715 123.271C66.306 123.271 64.7385 122.879 63.2689 121.998L19.7705 96.8197C16.8314 95.1543 15.068 92.0192 15.068 88.6883V38.332C15.068 35.001 16.8314 31.866 19.7705 30.2005L63.2689 5.02243C64.7385 4.23867 66.306 3.84679 67.9715 3.84679ZM67.9715 0.907715C65.8161 0.907715 63.7588 1.49553 61.7994 2.57319L18.301 27.6533C14.4802 29.9066 12.1289 33.9234 12.1289 38.332V88.5903C12.1289 92.9989 14.4802 97.1136 18.301 99.269L61.7994 124.447C63.6608 125.525 65.8161 126.112 67.9715 126.112C70.1268 126.112 72.1841 125.525 74.1435 124.447L117.642 99.269C121.463 97.0157 123.814 92.9989 123.814 88.5903V38.332C123.814 33.9234 121.463 29.8087 117.642 27.6533L74.1435 2.47522C72.2821 1.39756 70.1268 0.907715 67.9715 0.907715Z" fill="#1AA7DC"/>
<path d="M67.9719 3.84668C69.6373 3.84668 71.2048 4.23856 72.6744 5.12028L116.172 30.2984C119.111 31.9639 120.875 35.0989 120.875 38.4299V88.6882C120.875 92.0191 119.111 95.1542 116.172 96.8196L72.6744 121.998C71.2048 122.782 69.6373 123.271 67.9719 123.271C66.3064 123.271 64.7389 122.88 63.2693 121.998L19.7709 96.8196C16.8318 95.1542 15.0684 92.0191 15.0684 88.6882V38.3319C15.0684 35.001 16.8318 31.8659 19.7709 30.2005L63.2693 5.02231C64.7389 4.23856 66.3064 3.84668 67.9719 3.84668Z" fill="white"/>
<path d="M122.823 86.6309C122.823 90.9416 120.472 94.9583 116.749 97.1137L74.0346 121.802C70.3118 123.957 65.7072 123.957 61.8864 121.802L19.1718 97.1137C15.4489 94.9583 13.0977 90.9416 13.0977 86.6309" fill="#1EA8DC"/>
<path d="M46.5143 97.8974L45.5345 98.5833C45.1426 97.9954 44.3587 97.6035 43.5749 97.6035C42.1051 97.6035 41.0273 98.6813 41.0273 100.151C41.0273 101.718 42.1051 102.698 43.5749 102.698C44.4567 102.698 45.1426 102.306 45.5345 101.718L46.5143 102.404C45.9264 103.286 44.8486 103.874 43.5749 103.874C41.4193 103.874 39.8516 102.306 39.8516 100.151C39.8516 97.9954 41.4193 96.4277 43.5749 96.4277C44.8486 96.4277 45.9264 96.9176 46.5143 97.8974Z" fill="white"/>
<path d="M53.4704 103.58H48.2773V96.5254H53.3724V97.6032H49.4531V99.4649H53.2744V100.543H49.4531V102.502H53.4704V103.58Z" fill="white"/>
<path d="M58.4626 96.5254C60.1282 96.5254 61.0101 97.2113 61.0101 98.583C61.0101 99.7588 60.1282 100.543 58.6585 100.641L61.0101 103.58H59.6383L57.3848 100.641H56.7969V103.58H55.6211V96.5254H58.4626ZM56.6989 97.6032V99.5629H58.4626C59.3444 99.5629 59.8343 99.2689 59.8343 98.583C59.8343 97.8972 59.3444 97.6032 58.4626 97.6032H56.6989Z" fill="white"/>
<path d="M67.9681 97.6027H65.7145V103.58H64.5387V97.6027H62.2852V96.5249H68.0661V97.6027H67.9681Z" fill="white"/>
<path d="M70.6133 103.58H69.4375V96.5254H70.6133V103.58Z" fill="white"/>
<path d="M77.7663 100.543H74.043V103.58H72.8672V96.5254H77.9622V97.6032H74.043V99.4649H77.7663V100.543Z" fill="white"/>
<path d="M80.9023 103.58H79.7266V96.5254H80.9023V103.58Z" fill="white"/>
<path d="M88.443 103.58H83.25V96.5254H88.345V97.6032H84.4258V99.4649H88.247V100.543H84.4258V102.502H88.443V103.58Z" fill="white"/>
<path d="M93.2478 96.5254C95.5014 96.5254 96.9711 97.8972 96.9711 100.053C96.9711 102.209 95.5014 103.58 93.2478 103.58H90.4062V96.5254H93.2478ZM91.5821 97.6032V102.502H93.2478C94.9135 102.502 95.6973 101.425 95.6973 100.053C95.6973 98.583 94.9135 97.6032 93.2478 97.6032H91.5821Z" fill="white"/>
<mask id="mask0_2348_1812" style="mask-type:alpha" maskUnits="userSpaceOnUse" x="14" y="35" width="109" height="52">
<path d="M122.167 35.3667H14.2773V86.6088H122.167V35.3667Z" fill="url(#paint1_linear_2348_1812)"/>
</mask>
<g mask="url(#mask0_2348_1812)">
<mask id="mask1_2348_1812" style="mask-type:alpha" maskUnits="userSpaceOnUse" x="17" y="32" width="102" height="55">
<path d="M118.716 32.6499H17.0234V86.5331H118.716V32.6499Z" fill="url(#paint2_linear_2348_1812)"/>
</mask>
<g mask="url(#mask1_2348_1812)">
<path d="M19.6611 36.8633C19.8235 36.8633 19.9551 36.7317 19.9551 36.5693C19.9551 36.407 19.8235 36.2754 19.6611 36.2754C19.4988 36.2754 19.3672 36.407 19.3672 36.5693C19.3672 36.7317 19.4988 36.8633 19.6611 36.8633Z" fill="#1EA8DC"/>
<path d="M23.583 36.8633C23.7453 36.8633 23.877 36.7317 23.877 36.5693C23.877 36.407 23.7453 36.2754 23.583 36.2754C23.4207 36.2754 23.2891 36.407 23.2891 36.5693C23.2891 36.7317 23.4207 36.8633 23.583 36.8633Z" fill="#1EA8DC"/>
<path d="M27.501 36.8633C27.6633 36.8633 27.7949 36.7317 27.7949 36.5693C27.7949 36.407 27.6633 36.2754 27.501 36.2754C27.3386 36.2754 27.207 36.407 27.207 36.5693C27.207 36.7317 27.3386 36.8633 27.501 36.8633Z" fill="#1EA8DC"/>
<path d="M31.3174 36.8633C31.4797 36.8633 31.6113 36.7317 31.6113 36.5693C31.6113 36.407 31.4797 36.2754 31.3174 36.2754C31.155 36.2754 31.0234 36.407 31.0234 36.5693C31.0234 36.7317 31.155 36.8633 31.3174 36.8633Z" fill="#1EA8DC"/>
<path d="M35.2393 36.8633C35.4016 36.8633 35.5332 36.7317 35.5332 36.5693C35.5332 36.407 35.4016 36.2754 35.2393 36.2754C35.0769 36.2754 34.9453 36.407 34.9453 36.5693C34.9453 36.7317 35.0769 36.8633 35.2393 36.8633Z" fill="#1EA8DC"/>
<path d="M39.1611 36.8633C39.3235 36.8633 39.4551 36.7317 39.4551 36.5693C39.4551 36.407 39.3235 36.2754 39.1611 36.2754C38.9988 36.2754 38.8672 36.407 38.8672 36.5693C38.8672 36.7317 38.9988 36.8633 39.1611 36.8633Z" fill="#1EA8DC"/>
<path d="M43.0791 36.8633C43.2414 36.8633 43.373 36.7317 43.373 36.5693C43.373 36.407 43.2414 36.2754 43.0791 36.2754C42.9168 36.2754 42.7852 36.407 42.7852 36.5693C42.7852 36.7317 42.9168 36.8633 43.0791 36.8633Z" fill="#1EA8DC"/>
<path d="M46.8994 36.8633C47.0618 36.8633 47.1934 36.7317 47.1934 36.5693C47.1934 36.407 47.0618 36.2754 46.8994 36.2754C46.7371 36.2754 46.6055 36.407 46.6055 36.5693C46.6055 36.7317 46.7371 36.8633 46.8994 36.8633Z" fill="#1EA8DC"/>
<path d="M50.8135 36.8633C50.9758 36.8633 51.1074 36.7317 51.1074 36.5693C51.1074 36.407 50.9758 36.2754 50.8135 36.2754C50.6511 36.2754 50.5195 36.407 50.5195 36.5693C50.5195 36.7317 50.6511 36.8633 50.8135 36.8633Z" fill="#1EA8DC"/>
<path d="M54.7314 36.8633C54.8938 36.8633 55.0254 36.7317 55.0254 36.5693C55.0254 36.407 54.8938 36.2754 54.7314 36.2754C54.5691 36.2754 54.4375 36.407 54.4375 36.5693C54.4375 36.7317 54.5691 36.8633 54.7314 36.8633Z" fill="#1EA8DC"/>
<path d="M58.6494 36.8633C58.8118 36.8633 58.9434 36.7317 58.9434 36.5693C58.9434 36.407 58.8118 36.2754 58.6494 36.2754C58.4871 36.2754 58.3555 36.407 58.3555 36.5693C58.3555 36.7317 58.4871 36.8633 58.6494 36.8633Z" fill="#1EA8DC"/>
<path d="M62.4697 36.8633C62.6321 36.8633 62.7637 36.7317 62.7637 36.5693C62.7637 36.407 62.6321 36.2754 62.4697 36.2754C62.3074 36.2754 62.1758 36.407 62.1758 36.5693C62.1758 36.7317 62.3074 36.8633 62.4697 36.8633Z" fill="#1EA8DC"/>
<path d="M66.3955 36.8633C66.5578 36.8633 66.6894 36.7317 66.6894 36.5693C66.6894 36.407 66.5578 36.2754 66.3955 36.2754C66.2332 36.2754 66.1016 36.407 66.1016 36.5693C66.1016 36.7317 66.2332 36.8633 66.3955 36.8633Z" fill="#1EA8DC"/>
<path d="M70.3096 36.8633C70.4719 36.8633 70.6035 36.7317 70.6035 36.5693C70.6035 36.407 70.4719 36.2754 70.3096 36.2754C70.1472 36.2754 70.0156 36.407 70.0156 36.5693C70.0156 36.7317 70.1472 36.8633 70.3096 36.8633Z" fill="#1EA8DC"/>
<path d="M74.1376 36.8633C74.2999 36.8633 74.4315 36.7317 74.4315 36.5693C74.4315 36.407 74.2999 36.2754 74.1376 36.2754C73.9752 36.2754 73.8438 36.407 73.8438 36.5693C73.8438 36.7317 73.9752 36.8633 74.1376 36.8633Z" fill="#1EA8DC"/>
<path d="M78.0518 36.8633C78.2141 36.8633 78.3457 36.7317 78.3457 36.5693C78.3457 36.407 78.2141 36.2754 78.0518 36.2754C77.8894 36.2754 77.7578 36.407 77.7578 36.5693C77.7578 36.7317 77.8894 36.8633 78.0518 36.8633Z" fill="#1EA8DC"/>
<path d="M81.9697 36.8633C82.1321 36.8633 82.2637 36.7317 82.2637 36.5693C82.2637 36.407 82.1321 36.2754 81.9697 36.2754C81.8074 36.2754 81.6758 36.407 81.6758 36.5693C81.6758 36.7317 81.8074 36.8633 81.9697 36.8633Z" fill="#1EA8DC"/>
<path d="M85.8838 36.8633C86.0461 36.8633 86.1777 36.7317 86.1777 36.5693C86.1777 36.407 86.0461 36.2754 85.8838 36.2754C85.7214 36.2754 85.5898 36.407 85.5898 36.5693C85.5898 36.7317 85.7214 36.8633 85.8838 36.8633Z" fill="#1EA8DC"/>
<path d="M89.7119 36.8633C89.8743 36.8633 90.0059 36.7317 90.0059 36.5693C90.0059 36.407 89.8743 36.2754 89.7119 36.2754C89.5496 36.2754 89.418 36.407 89.418 36.5693C89.418 36.7317 89.5496 36.8633 89.7119 36.8633Z" fill="#1EA8DC"/>
<path d="M93.6299 36.8633C93.7922 36.8633 93.9238 36.7317 93.9238 36.5693C93.9238 36.407 93.7922 36.2754 93.6299 36.2754C93.4675 36.2754 93.3359 36.407 93.3359 36.5693C93.3359 36.7317 93.4675 36.8633 93.6299 36.8633Z" fill="#1EA8DC"/>
<path d="M97.5518 36.8633C97.7141 36.8633 97.8457 36.7317 97.8457 36.5693C97.8457 36.407 97.7141 36.2754 97.5518 36.2754C97.3894 36.2754 97.2578 36.407 97.2578 36.5693C97.2578 36.7317 97.3894 36.8633 97.5518 36.8633Z" fill="#1EA8DC"/>
<path d="M101.466 36.8633C101.628 36.8633 101.76 36.7317 101.76 36.5693C101.76 36.407 101.628 36.2754 101.466 36.2754C101.303 36.2754 101.172 36.407 101.172 36.5693C101.172 36.7317 101.303 36.8633 101.466 36.8633Z" fill="#1EA8DC"/>
<path d="M105.29 36.8633C105.452 36.8633 105.584 36.7317 105.584 36.5693C105.584 36.407 105.452 36.2754 105.29 36.2754C105.128 36.2754 104.996 36.407 104.996 36.5693C104.996 36.7317 105.128 36.8633 105.29 36.8633Z" fill="#1EA8DC"/>
<path d="M109.204 36.8633C109.366 36.8633 109.498 36.7317 109.498 36.5693C109.498 36.407 109.366 36.2754 109.204 36.2754C109.042 36.2754 108.91 36.407 108.91 36.5693C108.91 36.7317 109.042 36.8633 109.204 36.8633Z" fill="#1EA8DC"/>
<path d="M113.126 36.8633C113.288 36.8633 113.42 36.7317 113.42 36.5693C113.42 36.407 113.288 36.2754 113.126 36.2754C112.964 36.2754 112.832 36.407 112.832 36.5693C112.832 36.7317 112.964 36.8633 113.126 36.8633Z" fill="#1EA8DC"/>
<path d="M116.946 36.8633C117.109 36.8633 117.24 36.7317 117.24 36.5693C117.24 36.407 117.109 36.2754 116.946 36.2754C116.784 36.2754 116.652 36.407 116.652 36.5693C116.652 36.7317 116.784 36.8633 116.946 36.8633Z" fill="#1EA8DC"/>
<path d="M19.6611 40.8794C19.8235 40.8794 19.9551 40.7478 19.9551 40.5855C19.9551 40.4231 19.8235 40.2915 19.6611 40.2915C19.4988 40.2915 19.3672 40.4231 19.3672 40.5855C19.3672 40.7478 19.4988 40.8794 19.6611 40.8794Z" fill="#1EA8DC"/>
<path d="M23.583 40.8794C23.7453 40.8794 23.877 40.7478 23.877 40.5855C23.877 40.4231 23.7453 40.2915 23.583 40.2915C23.4207 40.2915 23.2891 40.4231 23.2891 40.5855C23.2891 40.7478 23.4207 40.8794 23.583 40.8794Z" fill="#1EA8DC"/>
<path d="M27.501 40.8794C27.6633 40.8794 27.7949 40.7478 27.7949 40.5855C27.7949 40.4231 27.6633 40.2915 27.501 40.2915C27.3386 40.2915 27.207 40.4231 27.207 40.5855C27.207 40.7478 27.3386 40.8794 27.501 40.8794Z" fill="#1EA8DC"/>
<path d="M31.3174 40.8794C31.4797 40.8794 31.6113 40.7478 31.6113 40.5855C31.6113 40.4231 31.4797 40.2915 31.3174 40.2915C31.155 40.2915 31.0234 40.4231 31.0234 40.5855C31.0234 40.7478 31.155 40.8794 31.3174 40.8794Z" fill="#1EA8DC"/>
<path d="M35.2393 40.8799C35.4016 40.8799 35.5332 40.7483 35.5332 40.5859C35.5332 40.4236 35.4016 40.292 35.2393 40.292C35.0769 40.292 34.9453 40.4236 34.9453 40.5859C34.9453 40.7483 35.0769 40.8799 35.2393 40.8799Z" fill="#1EA8DC"/>
<path d="M39.1611 40.8794C39.3235 40.8794 39.4551 40.7478 39.4551 40.5855C39.4551 40.4231 39.3235 40.2915 39.1611 40.2915C38.9988 40.2915 38.8672 40.4231 38.8672 40.5855C38.8672 40.7478 38.9988 40.8794 39.1611 40.8794Z" fill="#1EA8DC"/>
<path d="M43.0791 40.8799C43.2414 40.8799 43.373 40.7483 43.373 40.5859C43.373 40.4236 43.2414 40.292 43.0791 40.292C42.9168 40.292 42.7852 40.4236 42.7852 40.5859C42.7852 40.7483 42.9168 40.8799 43.0791 40.8799Z" fill="#1EA8DC"/>
<path d="M46.8994 40.8794C47.0618 40.8794 47.1934 40.7478 47.1934 40.5855C47.1934 40.4231 47.0618 40.2915 46.8994 40.2915C46.7371 40.2915 46.6055 40.4231 46.6055 40.5855C46.6055 40.7478 46.7371 40.8794 46.8994 40.8794Z" fill="#1EA8DC"/>
<path d="M50.8135 40.8794C50.9758 40.8794 51.1074 40.7478 51.1074 40.5855C51.1074 40.4231 50.9758 40.2915 50.8135 40.2915C50.6511 40.2915 50.5195 40.4231 50.5195 40.5855C50.5195 40.7478 50.6511 40.8794 50.8135 40.8794Z" fill="#1EA8DC"/>
<path d="M54.7314 40.8794C54.8938 40.8794 55.0254 40.7478 55.0254 40.5855C55.0254 40.4231 54.8938 40.2915 54.7314 40.2915C54.5691 40.2915 54.4375 40.4231 54.4375 40.5855C54.4375 40.7478 54.5691 40.8794 54.7314 40.8794Z" fill="#1EA8DC"/>
<path d="M58.6494 40.8794C58.8118 40.8794 58.9434 40.7478 58.9434 40.5855C58.9434 40.4231 58.8118 40.2915 58.6494 40.2915C58.4871 40.2915 58.3555 40.4231 58.3555 40.5855C58.3555 40.7478 58.4871 40.8794 58.6494 40.8794Z" fill="#1EA8DC"/>
<path d="M62.4697 40.8794C62.6321 40.8794 62.7637 40.7478 62.7637 40.5855C62.7637 40.4231 62.6321 40.2915 62.4697 40.2915C62.3074 40.2915 62.1758 40.4231 62.1758 40.5855C62.1758 40.7478 62.3074 40.8794 62.4697 40.8794Z" fill="#1EA8DC"/>
<path d="M66.3955 40.8794C66.5578 40.8794 66.6894 40.7478 66.6894 40.5855C66.6894 40.4231 66.5578 40.2915 66.3955 40.2915C66.2332 40.2915 66.1016 40.4231 66.1016 40.5855C66.1016 40.7478 66.2332 40.8794 66.3955 40.8794Z" fill="#1EA8DC"/>
<path d="M70.3096 40.8794C70.4719 40.8794 70.6035 40.7478 70.6035 40.5855C70.6035 40.4231 70.4719 40.2915 70.3096 40.2915C70.1472 40.2915 70.0156 40.4231 70.0156 40.5855C70.0156 40.7478 70.1472 40.8794 70.3096 40.8794Z" fill="#1EA8DC"/>
<path d="M74.1376 40.8794C74.2999 40.8794 74.4315 40.7478 74.4315 40.5855C74.4315 40.4231 74.2999 40.2915 74.1376 40.2915C73.9752 40.2915 73.8438 40.4231 73.8438 40.5855C73.8438 40.7478 73.9752 40.8794 74.1376 40.8794Z" fill="#1EA8DC"/>
<path d="M78.0518 40.8794C78.2141 40.8794 78.3457 40.7478 78.3457 40.5855C78.3457 40.4231 78.2141 40.2915 78.0518 40.2915C77.8894 40.2915 77.7578 40.4231 77.7578 40.5855C77.7578 40.7478 77.8894 40.8794 78.0518 40.8794Z" fill="#1EA8DC"/>
<path d="M81.9697 40.8799C82.1321 40.8799 82.2637 40.7483 82.2637 40.5859C82.2637 40.4236 82.1321 40.292 81.9697 40.292C81.8074 40.292 81.6758 40.4236 81.6758 40.5859C81.6758 40.7483 81.8074 40.8799 81.9697 40.8799Z" fill="#1EA8DC"/>
<path d="M85.8838 40.8799C86.0461 40.8799 86.1777 40.7483 86.1777 40.5859C86.1777 40.4236 86.0461 40.292 85.8838 40.292C85.7214 40.292 85.5898 40.4236 85.5898 40.5859C85.5898 40.7483 85.7214 40.8799 85.8838 40.8799Z" fill="#1EA8DC"/>
<path d="M89.7119 40.8794C89.8743 40.8794 90.0059 40.7478 90.0059 40.5855C90.0059 40.4231 89.8743 40.2915 89.7119 40.2915C89.5496 40.2915 89.418 40.4231 89.418 40.5855C89.418 40.7478 89.5496 40.8794 89.7119 40.8794Z" fill="#1EA8DC"/>
<path d="M93.6299 40.8794C93.7922 40.8794 93.9238 40.7478 93.9238 40.5855C93.9238 40.4231 93.7922 40.2915 93.6299 40.2915C93.4675 40.2915 93.3359 40.4231 93.3359 40.5855C93.3359 40.7478 93.4675 40.8794 93.6299 40.8794Z" fill="#1EA8DC"/>
<path d="M97.5518 40.8794C97.7141 40.8794 97.8457 40.7478 97.8457 40.5855C97.8457 40.4231 97.7141 40.2915 97.5518 40.2915C97.3894 40.2915 97.2578 40.4231 97.2578 40.5855C97.2578 40.7478 97.3894 40.8794 97.5518 40.8794Z" fill="#1EA8DC"/>
<path d="M101.466 40.8794C101.628 40.8794 101.76 40.7478 101.76 40.5855C101.76 40.4231 101.628 40.2915 101.466 40.2915C101.303 40.2915 101.172 40.4231 101.172 40.5855C101.172 40.7478 101.303 40.8794 101.466 40.8794Z" fill="#1EA8DC"/>
<path d="M105.29 40.8794C105.452 40.8794 105.584 40.7478 105.584 40.5855C105.584 40.4231 105.452 40.2915 105.29 40.2915C105.128 40.2915 104.996 40.4231 104.996 40.5855C104.996 40.7478 105.128 40.8794 105.29 40.8794Z" fill="#1EA8DC"/>
<path d="M109.204 40.8794C109.366 40.8794 109.498 40.7478 109.498 40.5855C109.498 40.4231 109.366 40.2915 109.204 40.2915C109.042 40.2915 108.91 40.4231 108.91 40.5855C108.91 40.7478 109.042 40.8794 109.204 40.8794Z" fill="#1EA8DC"/>
<path d="M113.126 40.8799C113.288 40.8799 113.42 40.7483 113.42 40.586C113.42 40.4236 113.288 40.292 113.126 40.292C112.964 40.292 112.832 40.4236 112.832 40.586C112.832 40.7483 112.964 40.8799 113.126 40.8799Z" fill="#1EA8DC"/>
<path d="M116.946 40.8794C117.109 40.8794 117.24 40.7478 117.24 40.5855C117.24 40.4231 117.109 40.2915 116.946 40.2915C116.784 40.2915 116.652 40.4231 116.652 40.5855C116.652 40.7478 116.784 40.8794 116.946 40.8794Z" fill="#1EA8DC"/>
<path d="M19.6611 44.7988C19.8235 44.7988 19.9551 44.6672 19.9551 44.5049C19.9551 44.3425 19.8235 44.2109 19.6611 44.2109C19.4988 44.2109 19.3672 44.3425 19.3672 44.5049C19.3672 44.6672 19.4988 44.7988 19.6611 44.7988Z" fill="#1EA8DC"/>
<path d="M23.583 44.7993C23.7453 44.7993 23.877 44.6677 23.877 44.5053C23.877 44.343 23.7453 44.2114 23.583 44.2114C23.4207 44.2114 23.2891 44.343 23.2891 44.5053C23.2891 44.6677 23.4207 44.7993 23.583 44.7993Z" fill="#1EA8DC"/>
<path d="M27.501 44.7988C27.6633 44.7988 27.7949 44.6672 27.7949 44.5049C27.7949 44.3425 27.6633 44.2109 27.501 44.2109C27.3386 44.2109 27.207 44.3425 27.207 44.5049C27.207 44.6672 27.3386 44.7988 27.501 44.7988Z" fill="#1EA8DC"/>
<path d="M31.3174 44.7993C31.4797 44.7993 31.6113 44.6677 31.6113 44.5053C31.6113 44.343 31.4797 44.2114 31.3174 44.2114C31.155 44.2114 31.0234 44.343 31.0234 44.5053C31.0234 44.6677 31.155 44.7993 31.3174 44.7993Z" fill="#1EA8DC"/>
<path d="M35.2393 44.7984C35.4016 44.7984 35.5332 44.6667 35.5332 44.5044C35.5332 44.3421 35.4016 44.2104 35.2393 44.2104C35.0769 44.2104 34.9453 44.3421 34.9453 44.5044C34.9453 44.6667 35.0769 44.7984 35.2393 44.7984Z" fill="#1EA8DC"/>
<path d="M39.1611 44.7993C39.3235 44.7993 39.4551 44.6677 39.4551 44.5053C39.4551 44.343 39.3235 44.2114 39.1611 44.2114C38.9988 44.2114 38.8672 44.343 38.8672 44.5053C38.8672 44.6677 38.9988 44.7993 39.1611 44.7993Z" fill="#1EA8DC"/>
<path d="M43.0791 44.7984C43.2414 44.7984 43.373 44.6667 43.373 44.5044C43.373 44.3421 43.2414 44.2104 43.0791 44.2104C42.9168 44.2104 42.7852 44.3421 42.7852 44.5044C42.7852 44.6667 42.9168 44.7984 43.0791 44.7984Z" fill="#1EA8DC"/>
<path d="M46.8994 44.7993C47.0618 44.7993 47.1934 44.6677 47.1934 44.5053C47.1934 44.343 47.0618 44.2114 46.8994 44.2114C46.7371 44.2114 46.6055 44.343 46.6055 44.5053C46.6055 44.6677 46.7371 44.7993 46.8994 44.7993Z" fill="#1EA8DC"/>
<path d="M50.8135 44.7988C50.9758 44.7988 51.1074 44.6672 51.1074 44.5049C51.1074 44.3425 50.9758 44.2109 50.8135 44.2109C50.6511 44.2109 50.5195 44.3425 50.5195 44.5049C50.5195 44.6672 50.6511 44.7988 50.8135 44.7988Z" fill="#1EA8DC"/>
<path d="M54.7314 44.7988C54.8938 44.7988 55.0254 44.6672 55.0254 44.5049C55.0254 44.3425 54.8938 44.2109 54.7314 44.2109C54.5691 44.2109 54.4375 44.3425 54.4375 44.5049C54.4375 44.6672 54.5691 44.7988 54.7314 44.7988Z" fill="#1EA8DC"/>
<path d="M58.6494 44.7993C58.8118 44.7993 58.9434 44.6677 58.9434 44.5053C58.9434 44.343 58.8118 44.2114 58.6494 44.2114C58.4871 44.2114 58.3555 44.343 58.3555 44.5053C58.3555 44.6677 58.4871 44.7993 58.6494 44.7993Z" fill="#1EA8DC"/>
<path d="M62.4697 44.7993C62.6321 44.7993 62.7637 44.6677 62.7637 44.5053C62.7637 44.343 62.6321 44.2114 62.4697 44.2114C62.3074 44.2114 62.1758 44.343 62.1758 44.5053C62.1758 44.6677 62.3074 44.7993 62.4697 44.7993Z" fill="#1EA8DC"/>
<path d="M66.3955 44.7993C66.5578 44.7993 66.6894 44.6677 66.6894 44.5053C66.6894 44.343 66.5578 44.2114 66.3955 44.2114C66.2332 44.2114 66.1016 44.343 66.1016 44.5053C66.1016 44.6677 66.2332 44.7993 66.3955 44.7993Z" fill="#1EA8DC"/>
<path d="M70.3096 44.7993C70.4719 44.7993 70.6035 44.6677 70.6035 44.5053C70.6035 44.343 70.4719 44.2114 70.3096 44.2114C70.1472 44.2114 70.0156 44.343 70.0156 44.5053C70.0156 44.6677 70.1472 44.7993 70.3096 44.7993Z" fill="#1EA8DC"/>
<path d="M74.1376 44.7993C74.2999 44.7993 74.4315 44.6677 74.4315 44.5053C74.4315 44.343 74.2999 44.2114 74.1376 44.2114C73.9752 44.2114 73.8438 44.343 73.8438 44.5053C73.8438 44.6677 73.9752 44.7993 74.1376 44.7993Z" fill="#1EA8DC"/>
<path d="M78.0518 44.7993C78.2141 44.7993 78.3457 44.6677 78.3457 44.5053C78.3457 44.343 78.2141 44.2114 78.0518 44.2114C77.8894 44.2114 77.7578 44.343 77.7578 44.5053C77.7578 44.6677 77.8894 44.7993 78.0518 44.7993Z" fill="#1EA8DC"/>
<path d="M81.9697 44.7984C82.1321 44.7984 82.2637 44.6667 82.2637 44.5044C82.2637 44.3421 82.1321 44.2104 81.9697 44.2104C81.8074 44.2104 81.6758 44.3421 81.6758 44.5044C81.6758 44.6667 81.8074 44.7984 81.9697 44.7984Z" fill="#1EA8DC"/>
<path d="M85.8838 44.7984C86.0461 44.7984 86.1777 44.6667 86.1777 44.5044C86.1777 44.3421 86.0461 44.2104 85.8838 44.2104C85.7214 44.2104 85.5898 44.3421 85.5898 44.5044C85.5898 44.6667 85.7214 44.7984 85.8838 44.7984Z" fill="#1EA8DC"/>
<path d="M89.7119 44.7988C89.8743 44.7988 90.0059 44.6672 90.0059 44.5049C90.0059 44.3425 89.8743 44.2109 89.7119 44.2109C89.5496 44.2109 89.418 44.3425 89.418 44.5049C89.418 44.6672 89.5496 44.7988 89.7119 44.7988Z" fill="#1EA8DC"/>
<path d="M93.6299 44.7993C93.7922 44.7993 93.9238 44.6677 93.9238 44.5053C93.9238 44.343 93.7922 44.2114 93.6299 44.2114C93.4675 44.2114 93.3359 44.343 93.3359 44.5053C93.3359 44.6677 93.4675 44.7993 93.6299 44.7993Z" fill="#1EA8DC"/>
<path d="M97.5518 44.7988C97.7141 44.7988 97.8457 44.6672 97.8457 44.5049C97.8457 44.3425 97.7141 44.2109 97.5518 44.2109C97.3894 44.2109 97.2578 44.3425 97.2578 44.5049C97.2578 44.6672 97.3894 44.7988 97.5518 44.7988Z" fill="#1EA8DC"/>
<path d="M101.466 44.7993C101.628 44.7993 101.76 44.6677 101.76 44.5053C101.76 44.343 101.628 44.2114 101.466 44.2114C101.303 44.2114 101.172 44.343 101.172 44.5053C101.172 44.6677 101.303 44.7993 101.466 44.7993Z" fill="#1EA8DC"/>
<path d="M105.29 44.7993C105.452 44.7993 105.584 44.6677 105.584 44.5053C105.584 44.343 105.452 44.2114 105.29 44.2114C105.128 44.2114 104.996 44.343 104.996 44.5053C104.996 44.6677 105.128 44.7993 105.29 44.7993Z" fill="#1EA8DC"/>
<path d="M109.204 44.7993C109.366 44.7993 109.498 44.6677 109.498 44.5053C109.498 44.343 109.366 44.2114 109.204 44.2114C109.042 44.2114 108.91 44.343 108.91 44.5053C108.91 44.6677 109.042 44.7993 109.204 44.7993Z" fill="#1EA8DC"/>
<path d="M113.126 44.7983C113.288 44.7983 113.42 44.6667 113.42 44.5044C113.42 44.342 113.288 44.2104 113.126 44.2104C112.964 44.2104 112.832 44.342 112.832 44.5044C112.832 44.6667 112.964 44.7983 113.126 44.7983Z" fill="#1EA8DC"/>
<path d="M116.946 44.7993C117.109 44.7993 117.24 44.6677 117.24 44.5053C117.24 44.343 117.109 44.2114 116.946 44.2114C116.784 44.2114 116.652 44.343 116.652 44.5053C116.652 44.6677 116.784 44.7993 116.946 44.7993Z" fill="#1EA8DC"/>
<path d="M19.6611 48.7178C19.8235 48.7178 19.9551 48.5862 19.9551 48.4238C19.9551 48.2615 19.8235 48.1299 19.6611 48.1299C19.4988 48.1299 19.3672 48.2615 19.3672 48.4238C19.3672 48.5862 19.4988 48.7178 19.6611 48.7178Z" fill="#1EA8DC"/>
<path d="M23.583 48.7178C23.7453 48.7178 23.877 48.5862 23.877 48.4238C23.877 48.2615 23.7453 48.1299 23.583 48.1299C23.4207 48.1299 23.2891 48.2615 23.2891 48.4238C23.2891 48.5862 23.4207 48.7178 23.583 48.7178Z" fill="#1EA8DC"/>
<path d="M27.501 48.7178C27.6633 48.7178 27.7949 48.5862 27.7949 48.4238C27.7949 48.2615 27.6633 48.1299 27.501 48.1299C27.3386 48.1299 27.207 48.2615 27.207 48.4238C27.207 48.5862 27.3386 48.7178 27.501 48.7178Z" fill="#1EA8DC"/>
<path d="M31.3174 48.7178C31.4797 48.7178 31.6113 48.5862 31.6113 48.4238C31.6113 48.2615 31.4797 48.1299 31.3174 48.1299C31.155 48.1299 31.0234 48.2615 31.0234 48.4238C31.0234 48.5862 31.155 48.7178 31.3174 48.7178Z" fill="#1EA8DC"/>
<path d="M35.2393 48.7173C35.4016 48.7173 35.5332 48.5857 35.5332 48.4234C35.5332 48.261 35.4016 48.1294 35.2393 48.1294C35.0769 48.1294 34.9453 48.261 34.9453 48.4234C34.9453 48.5857 35.0769 48.7173 35.2393 48.7173Z" fill="#1EA8DC"/>
<path d="M39.1611 48.7178C39.3235 48.7178 39.4551 48.5862 39.4551 48.4238C39.4551 48.2615 39.3235 48.1299 39.1611 48.1299C38.9988 48.1299 38.8672 48.2615 38.8672 48.4238C38.8672 48.5862 38.9988 48.7178 39.1611 48.7178Z" fill="#1EA8DC"/>
<path d="M43.0791 48.7173C43.2414 48.7173 43.373 48.5857 43.373 48.4234C43.373 48.261 43.2414 48.1294 43.0791 48.1294C42.9168 48.1294 42.7852 48.261 42.7852 48.4234C42.7852 48.5857 42.9168 48.7173 43.0791 48.7173Z" fill="#1EA8DC"/>
<path d="M46.8994 48.7178C47.0618 48.7178 47.1934 48.5862 47.1934 48.4238C47.1934 48.2615 47.0618 48.1299 46.8994 48.1299C46.7371 48.1299 46.6055 48.2615 46.6055 48.4238C46.6055 48.5862 46.7371 48.7178 46.8994 48.7178Z" fill="#1EA8DC"/>
<path d="M50.8135 48.7178C50.9758 48.7178 51.1074 48.5862 51.1074 48.4238C51.1074 48.2615 50.9758 48.1299 50.8135 48.1299C50.6511 48.1299 50.5195 48.2615 50.5195 48.4238C50.5195 48.5862 50.6511 48.7178 50.8135 48.7178Z" fill="#1EA8DC"/>
<path d="M54.7314 48.7178C54.8938 48.7178 55.0254 48.5862 55.0254 48.4238C55.0254 48.2615 54.8938 48.1299 54.7314 48.1299C54.5691 48.1299 54.4375 48.2615 54.4375 48.4238C54.4375 48.5862 54.5691 48.7178 54.7314 48.7178Z" fill="#1EA8DC"/>
<path d="M58.6494 48.7178C58.8118 48.7178 58.9434 48.5862 58.9434 48.4238C58.9434 48.2615 58.8118 48.1299 58.6494 48.1299C58.4871 48.1299 58.3555 48.2615 58.3555 48.4238C58.3555 48.5862 58.4871 48.7178 58.6494 48.7178Z" fill="#1EA8DC"/>
<path d="M62.4697 48.7178C62.6321 48.7178 62.7637 48.5862 62.7637 48.4238C62.7637 48.2615 62.6321 48.1299 62.4697 48.1299C62.3074 48.1299 62.1758 48.2615 62.1758 48.4238C62.1758 48.5862 62.3074 48.7178 62.4697 48.7178Z" fill="#1EA8DC"/>
<path d="M66.3955 48.7178C66.5578 48.7178 66.6894 48.5862 66.6894 48.4238C66.6894 48.2615 66.5578 48.1299 66.3955 48.1299C66.2332 48.1299 66.1016 48.2615 66.1016 48.4238C66.1016 48.5862 66.2332 48.7178 66.3955 48.7178Z" fill="#1EA8DC"/>
<path d="M70.3096 48.7178C70.4719 48.7178 70.6035 48.5862 70.6035 48.4238C70.6035 48.2615 70.4719 48.1299 70.3096 48.1299C70.1472 48.1299 70.0156 48.2615 70.0156 48.4238C70.0156 48.5862 70.1472 48.7178 70.3096 48.7178Z" fill="#1EA8DC"/>
<path d="M74.1376 48.7178C74.2999 48.7178 74.4315 48.5862 74.4315 48.4238C74.4315 48.2615 74.2999 48.1299 74.1376 48.1299C73.9752 48.1299 73.8438 48.2615 73.8438 48.4238C73.8438 48.5862 73.9752 48.7178 74.1376 48.7178Z" fill="#1EA8DC"/>
<path d="M78.0518 48.7178C78.2141 48.7178 78.3457 48.5862 78.3457 48.4238C78.3457 48.2615 78.2141 48.1299 78.0518 48.1299C77.8894 48.1299 77.7578 48.2615 77.7578 48.4238C77.7578 48.5862 77.8894 48.7178 78.0518 48.7178Z" fill="#1EA8DC"/>
<path d="M81.9697 48.7178C82.1321 48.7178 82.2637 48.5862 82.2637 48.4238C82.2637 48.2615 82.1321 48.1299 81.9697 48.1299C81.8074 48.1299 81.6758 48.2615 81.6758 48.4238C81.6758 48.5862 81.8074 48.7178 81.9697 48.7178Z" fill="#1EA8DC"/>
<path d="M85.8838 48.7173C86.0461 48.7173 86.1777 48.5857 86.1777 48.4234C86.1777 48.261 86.0461 48.1294 85.8838 48.1294C85.7214 48.1294 85.5898 48.261 85.5898 48.4234C85.5898 48.5857 85.7214 48.7173 85.8838 48.7173Z" fill="#1EA8DC"/>
<path d="M89.7119 48.7178C89.8743 48.7178 90.0059 48.5862 90.0059 48.4238C90.0059 48.2615 89.8743 48.1299 89.7119 48.1299C89.5496 48.1299 89.418 48.2615 89.418 48.4238C89.418 48.5862 89.5496 48.7178 89.7119 48.7178Z" fill="#1EA8DC"/>
<path d="M93.6299 48.7178C93.7922 48.7178 93.9238 48.5862 93.9238 48.4238C93.9238 48.2615 93.7922 48.1299 93.6299 48.1299C93.4675 48.1299 93.3359 48.2615 93.3359 48.4238C93.3359 48.5862 93.4675 48.7178 93.6299 48.7178Z" fill="#1EA8DC"/>
<path d="M97.5518 48.7178C97.7141 48.7178 97.8457 48.5862 97.8457 48.4238C97.8457 48.2615 97.7141 48.1299 97.5518 48.1299C97.3894 48.1299 97.2578 48.2615 97.2578 48.4238C97.2578 48.5862 97.3894 48.7178 97.5518 48.7178Z" fill="#1EA8DC"/>
<path d="M101.466 48.7178C101.628 48.7178 101.76 48.5862 101.76 48.4238C101.76 48.2615 101.628 48.1299 101.466 48.1299C101.303 48.1299 101.172 48.2615 101.172 48.4238C101.172 48.5862 101.303 48.7178 101.466 48.7178Z" fill="#1EA8DC"/>
<path d="M105.29 48.7178C105.452 48.7178 105.584 48.5862 105.584 48.4238C105.584 48.2615 105.452 48.1299 105.29 48.1299C105.128 48.1299 104.996 48.2615 104.996 48.4238C104.996 48.5862 105.128 48.7178 105.29 48.7178Z" fill="#1EA8DC"/>
<path d="M109.204 48.7178C109.366 48.7178 109.498 48.5862 109.498 48.4238C109.498 48.2615 109.366 48.1299 109.204 48.1299C109.042 48.1299 108.91 48.2615 108.91 48.4238C108.91 48.5862 109.042 48.7178 109.204 48.7178Z" fill="#1EA8DC"/>
<path d="M113.126 48.7178C113.288 48.7178 113.42 48.5862 113.42 48.4238C113.42 48.2615 113.288 48.1299 113.126 48.1299C112.964 48.1299 112.832 48.2615 112.832 48.4238C112.832 48.5862 112.964 48.7178 113.126 48.7178Z" fill="#1EA8DC"/>
<path d="M116.946 48.7178C117.109 48.7178 117.24 48.5862 117.24 48.4238C117.24 48.2615 117.109 48.1299 116.946 48.1299C116.784 48.1299 116.652 48.2615 116.652 48.4238C116.652 48.5862 116.784 48.7178 116.946 48.7178Z" fill="#1EA8DC"/>
<path d="M19.6611 52.6361C19.8235 52.6361 19.9551 52.5045 19.9551 52.3422C19.9551 52.1799 19.8235 52.0483 19.6611 52.0483C19.4988 52.0483 19.3672 52.1799 19.3672 52.3422C19.3672 52.5045 19.4988 52.6361 19.6611 52.6361Z" fill="#1EA8DC"/>
<path d="M23.583 52.6361C23.7453 52.6361 23.877 52.5045 23.877 52.3422C23.877 52.1799 23.7453 52.0483 23.583 52.0483C23.4207 52.0483 23.2891 52.1799 23.2891 52.3422C23.2891 52.5045 23.4207 52.6361 23.583 52.6361Z" fill="#1EA8DC"/>
<path d="M27.501 52.6361C27.6633 52.6361 27.7949 52.5045 27.7949 52.3422C27.7949 52.1799 27.6633 52.0483 27.501 52.0483C27.3386 52.0483 27.207 52.1799 27.207 52.3422C27.207 52.5045 27.3386 52.6361 27.501 52.6361Z" fill="#1EA8DC"/>
<path d="M31.3174 52.6361C31.4797 52.6361 31.6113 52.5045 31.6113 52.3422C31.6113 52.1799 31.4797 52.0483 31.3174 52.0483C31.155 52.0483 31.0234 52.1799 31.0234 52.3422C31.0234 52.5045 31.155 52.6361 31.3174 52.6361Z" fill="#1EA8DC"/>
<path d="M35.2393 52.6361C35.4016 52.6361 35.5332 52.5045 35.5332 52.3422C35.5332 52.1799 35.4016 52.0483 35.2393 52.0483C35.0769 52.0483 34.9453 52.1799 34.9453 52.3422C34.9453 52.5045 35.0769 52.6361 35.2393 52.6361Z" fill="#1EA8DC"/>
<path d="M39.1611 52.6361C39.3235 52.6361 39.4551 52.5045 39.4551 52.3422C39.4551 52.1799 39.3235 52.0483 39.1611 52.0483C38.9988 52.0483 38.8672 52.1799 38.8672 52.3422C38.8672 52.5045 38.9988 52.6361 39.1611 52.6361Z" fill="#1EA8DC"/>
<path d="M43.0791 52.6361C43.2414 52.6361 43.373 52.5045 43.373 52.3422C43.373 52.1799 43.2414 52.0483 43.0791 52.0483C42.9168 52.0483 42.7852 52.1799 42.7852 52.3422C42.7852 52.5045 42.9168 52.6361 43.0791 52.6361Z" fill="#1EA8DC"/>
<path d="M46.8994 52.6361C47.0618 52.6361 47.1934 52.5045 47.1934 52.3422C47.1934 52.1799 47.0618 52.0483 46.8994 52.0483C46.7371 52.0483 46.6055 52.1799 46.6055 52.3422C46.6055 52.5045 46.7371 52.6361 46.8994 52.6361Z" fill="#1EA8DC"/>
<path d="M50.8135 52.6361C50.9758 52.6361 51.1074 52.5045 51.1074 52.3422C51.1074 52.1799 50.9758 52.0483 50.8135 52.0483C50.6511 52.0483 50.5195 52.1799 50.5195 52.3422C50.5195 52.5045 50.6511 52.6361 50.8135 52.6361Z" fill="#1EA8DC"/>
<path d="M54.7314 52.6361C54.8938 52.6361 55.0254 52.5045 55.0254 52.3422C55.0254 52.1799 54.8938 52.0483 54.7314 52.0483C54.5691 52.0483 54.4375 52.1799 54.4375 52.3422C54.4375 52.5045 54.5691 52.6361 54.7314 52.6361Z" fill="#1EA8DC"/>
<path d="M58.6494 52.6361C58.8118 52.6361 58.9434 52.5045 58.9434 52.3422C58.9434 52.1799 58.8118 52.0483 58.6494 52.0483C58.4871 52.0483 58.3555 52.1799 58.3555 52.3422C58.3555 52.5045 58.4871 52.6361 58.6494 52.6361Z" fill="#1EA8DC"/>
<path d="M62.4697 52.6361C62.6321 52.6361 62.7637 52.5045 62.7637 52.3422C62.7637 52.1799 62.6321 52.0483 62.4697 52.0483C62.3074 52.0483 62.1758 52.1799 62.1758 52.3422C62.1758 52.5045 62.3074 52.6361 62.4697 52.6361Z" fill="#1EA8DC"/>
<path d="M66.3955 52.6361C66.5578 52.6361 66.6894 52.5045 66.6894 52.3422C66.6894 52.1799 66.5578 52.0483 66.3955 52.0483C66.2332 52.0483 66.1016 52.1799 66.1016 52.3422C66.1016 52.5045 66.2332 52.6361 66.3955 52.6361Z" fill="#1EA8DC"/>
<path d="M70.3096 52.6361C70.4719 52.6361 70.6035 52.5045 70.6035 52.3422C70.6035 52.1799 70.4719 52.0483 70.3096 52.0483C70.1472 52.0483 70.0156 52.1799 70.0156 52.3422C70.0156 52.5045 70.1472 52.6361 70.3096 52.6361Z" fill="#1EA8DC"/>
<path d="M74.1376 52.6361C74.2999 52.6361 74.4315 52.5045 74.4315 52.3422C74.4315 52.1799 74.2999 52.0483 74.1376 52.0483C73.9752 52.0483 73.8438 52.1799 73.8438 52.3422C73.8438 52.5045 73.9752 52.6361 74.1376 52.6361Z" fill="#1EA8DC"/>
<path d="M78.0518 52.6361C78.2141 52.6361 78.3457 52.5045 78.3457 52.3422C78.3457 52.1799 78.2141 52.0483 78.0518 52.0483C77.8894 52.0483 77.7578 52.1799 77.7578 52.3422C77.7578 52.5045 77.8894 52.6361 78.0518 52.6361Z" fill="#1EA8DC"/>
<path d="M81.9697 52.6361C82.1321 52.6361 82.2637 52.5045 82.2637 52.3422C82.2637 52.1799 82.1321 52.0483 81.9697 52.0483C81.8074 52.0483 81.6758 52.1799 81.6758 52.3422C81.6758 52.5045 81.8074 52.6361 81.9697 52.6361Z" fill="#1EA8DC"/>
<path d="M85.8838 52.6361C86.0461 52.6361 86.1777 52.5045 86.1777 52.3422C86.1777 52.1799 86.0461 52.0483 85.8838 52.0483C85.7214 52.0483 85.5898 52.1799 85.5898 52.3422C85.5898 52.5045 85.7214 52.6361 85.8838 52.6361Z" fill="#1EA8DC"/>
<path d="M89.7119 52.6361C89.8743 52.6361 90.0059 52.5045 90.0059 52.3422C90.0059 52.1799 89.8743 52.0483 89.7119 52.0483C89.5496 52.0483 89.418 52.1799 89.418 52.3422C89.418 52.5045 89.5496 52.6361 89.7119 52.6361Z" fill="#1EA8DC"/>
<path d="M93.6299 52.6361C93.7922 52.6361 93.9238 52.5045 93.9238 52.3422C93.9238 52.1799 93.7922 52.0483 93.6299 52.0483C93.4675 52.0483 93.3359 52.1799 93.3359 52.3422C93.3359 52.5045 93.4675 52.6361 93.6299 52.6361Z" fill="#1EA8DC"/>
<path d="M97.5518 52.6361C97.7141 52.6361 97.8457 52.5045 97.8457 52.3422C97.8457 52.1799 97.7141 52.0483 97.5518 52.0483C97.3894 52.0483 97.2578 52.1799 97.2578 52.3422C97.2578 52.5045 97.3894 52.6361 97.5518 52.6361Z" fill="#1EA8DC"/>
<path d="M101.466 52.6361C101.628 52.6361 101.76 52.5045 101.76 52.3422C101.76 52.1799 101.628 52.0483 101.466 52.0483C101.303 52.0483 101.172 52.1799 101.172 52.3422C101.172 52.5045 101.303 52.6361 101.466 52.6361Z" fill="#1EA8DC"/>
<path d="M105.29 52.6361C105.452 52.6361 105.584 52.5045 105.584 52.3422C105.584 52.1799 105.452 52.0483 105.29 52.0483C105.128 52.0483 104.996 52.1799 104.996 52.3422C104.996 52.5045 105.128 52.6361 105.29 52.6361Z" fill="#1EA8DC"/>
<path d="M109.204 52.6361C109.366 52.6361 109.498 52.5045 109.498 52.3422C109.498 52.1799 109.366 52.0483 109.204 52.0483C109.042 52.0483 108.91 52.1799 108.91 52.3422C108.91 52.5045 109.042 52.6361 109.204 52.6361Z" fill="#1EA8DC"/>
<path d="M113.126 52.6361C113.288 52.6361 113.42 52.5045 113.42 52.3422C113.42 52.1799 113.288 52.0483 113.126 52.0483C112.964 52.0483 112.832 52.1799 112.832 52.3422C112.832 52.5045 112.964 52.6361 113.126 52.6361Z" fill="#1EA8DC"/>
<path d="M116.946 52.6361C117.109 52.6361 117.24 52.5045 117.24 52.3422C117.24 52.1799 117.109 52.0483 116.946 52.0483C116.784 52.0483 116.652 52.1799 116.652 52.3422C116.652 52.5045 116.784 52.6361 116.946 52.6361Z" fill="#1EA8DC"/>
<path d="M19.6611 56.5556C19.8235 56.5556 19.9551 56.424 19.9551 56.2617C19.9551 56.0994 19.8235 55.9678 19.6611 55.9678C19.4988 55.9678 19.3672 56.0994 19.3672 56.2617C19.3672 56.424 19.4988 56.5556 19.6611 56.5556Z" fill="#1EA8DC"/>
<path d="M23.583 56.5556C23.7453 56.5556 23.877 56.424 23.877 56.2617C23.877 56.0994 23.7453 55.9678 23.583 55.9678C23.4207 55.9678 23.2891 56.0994 23.2891 56.2617C23.2891 56.424 23.4207 56.5556 23.583 56.5556Z" fill="#1EA8DC"/>
<path d="M27.501 56.5556C27.6633 56.5556 27.7949 56.424 27.7949 56.2617C27.7949 56.0994 27.6633 55.9678 27.501 55.9678C27.3386 55.9678 27.207 56.0994 27.207 56.2617C27.207 56.424 27.3386 56.5556 27.501 56.5556Z" fill="#1EA8DC"/>
<path d="M31.3174 56.5556C31.4797 56.5556 31.6113 56.424 31.6113 56.2617C31.6113 56.0994 31.4797 55.9678 31.3174 55.9678C31.155 55.9678 31.0234 56.0994 31.0234 56.2617C31.0234 56.424 31.155 56.5556 31.3174 56.5556Z" fill="#1EA8DC"/>
<path d="M35.2393 56.5552C35.4016 56.5552 35.5332 56.4236 35.5332 56.2613C35.5332 56.0989 35.4016 55.9673 35.2393 55.9673C35.0769 55.9673 34.9453 56.0989 34.9453 56.2613C34.9453 56.4236 35.0769 56.5552 35.2393 56.5552Z" fill="#1EA8DC"/>
<path d="M39.1611 56.5556C39.3235 56.5556 39.4551 56.424 39.4551 56.2617C39.4551 56.0994 39.3235 55.9678 39.1611 55.9678C38.9988 55.9678 38.8672 56.0994 38.8672 56.2617C38.8672 56.424 38.9988 56.5556 39.1611 56.5556Z" fill="#1EA8DC"/>
<path d="M43.0791 56.5552C43.2414 56.5552 43.373 56.4236 43.373 56.2613C43.373 56.0989 43.2414 55.9673 43.0791 55.9673C42.9168 55.9673 42.7852 56.0989 42.7852 56.2613C42.7852 56.4236 42.9168 56.5552 43.0791 56.5552Z" fill="#1EA8DC"/>
<path d="M46.8994 56.5556C47.0618 56.5556 47.1934 56.424 47.1934 56.2617C47.1934 56.0994 47.0618 55.9678 46.8994 55.9678C46.7371 55.9678 46.6055 56.0994 46.6055 56.2617C46.6055 56.424 46.7371 56.5556 46.8994 56.5556Z" fill="#1EA8DC"/>
<path d="M50.8135 56.5556C50.9758 56.5556 51.1074 56.424 51.1074 56.2617C51.1074 56.0994 50.9758 55.9678 50.8135 55.9678C50.6511 55.9678 50.5195 56.0994 50.5195 56.2617C50.5195 56.424 50.6511 56.5556 50.8135 56.5556Z" fill="#1EA8DC"/>
<path d="M54.7314 56.5556C54.8938 56.5556 55.0254 56.424 55.0254 56.2617C55.0254 56.0994 54.8938 55.9678 54.7314 55.9678C54.5691 55.9678 54.4375 56.0994 54.4375 56.2617C54.4375 56.424 54.5691 56.5556 54.7314 56.5556Z" fill="#1EA8DC"/>
<path d="M58.6494 56.5556C58.8118 56.5556 58.9434 56.424 58.9434 56.2617C58.9434 56.0994 58.8118 55.9678 58.6494 55.9678C58.4871 55.9678 58.3555 56.0994 58.3555 56.2617C58.3555 56.424 58.4871 56.5556 58.6494 56.5556Z" fill="#1EA8DC"/>
<path d="M62.4697 56.5556C62.6321 56.5556 62.7637 56.424 62.7637 56.2617C62.7637 56.0994 62.6321 55.9678 62.4697 55.9678C62.3074 55.9678 62.1758 56.0994 62.1758 56.2617C62.1758 56.424 62.3074 56.5556 62.4697 56.5556Z" fill="#1EA8DC"/>
<path d="M66.3955 56.5556C66.5578 56.5556 66.6894 56.424 66.6894 56.2617C66.6894 56.0994 66.5578 55.9678 66.3955 55.9678C66.2332 55.9678 66.1016 56.0994 66.1016 56.2617C66.1016 56.424 66.2332 56.5556 66.3955 56.5556Z" fill="#1EA8DC"/>
<path d="M70.3096 56.5556C70.4719 56.5556 70.6035 56.424 70.6035 56.2617C70.6035 56.0994 70.4719 55.9678 70.3096 55.9678C70.1472 55.9678 70.0156 56.0994 70.0156 56.2617C70.0156 56.424 70.1472 56.5556 70.3096 56.5556Z" fill="#1EA8DC"/>
<path d="M74.1376 56.5556C74.2999 56.5556 74.4315 56.424 74.4315 56.2617C74.4315 56.0994 74.2999 55.9678 74.1376 55.9678C73.9752 55.9678 73.8438 56.0994 73.8438 56.2617C73.8438 56.424 73.9752 56.5556 74.1376 56.5556Z" fill="#1EA8DC"/>
<path d="M78.0518 56.5556C78.2141 56.5556 78.3457 56.424 78.3457 56.2617C78.3457 56.0994 78.2141 55.9678 78.0518 55.9678C77.8894 55.9678 77.7578 56.0994 77.7578 56.2617C77.7578 56.424 77.8894 56.5556 78.0518 56.5556Z" fill="#1EA8DC"/>
<path d="M81.9697 56.5552C82.1321 56.5552 82.2637 56.4236 82.2637 56.2613C82.2637 56.0989 82.1321 55.9673 81.9697 55.9673C81.8074 55.9673 81.6758 56.0989 81.6758 56.2613C81.6758 56.4236 81.8074 56.5552 81.9697 56.5552Z" fill="#1EA8DC"/>
<path d="M85.8838 56.5552C86.0461 56.5552 86.1777 56.4236 86.1777 56.2613C86.1777 56.0989 86.0461 55.9673 85.8838 55.9673C85.7214 55.9673 85.5898 56.0989 85.5898 56.2613C85.5898 56.4236 85.7214 56.5552 85.8838 56.5552Z" fill="#1EA8DC"/>
<path d="M89.7119 56.5556C89.8743 56.5556 90.0059 56.424 90.0059 56.2617C90.0059 56.0994 89.8743 55.9678 89.7119 55.9678C89.5496 55.9678 89.418 56.0994 89.418 56.2617C89.418 56.424 89.5496 56.5556 89.7119 56.5556Z" fill="#1EA8DC"/>
<path d="M93.6299 56.5556C93.7922 56.5556 93.9238 56.424 93.9238 56.2617C93.9238 56.0994 93.7922 55.9678 93.6299 55.9678C93.4675 55.9678 93.3359 56.0994 93.3359 56.2617C93.3359 56.424 93.4675 56.5556 93.6299 56.5556Z" fill="#1EA8DC"/>
<path d="M97.5518 56.5556C97.7141 56.5556 97.8457 56.424 97.8457 56.2617C97.8457 56.0994 97.7141 55.9678 97.5518 55.9678C97.3894 55.9678 97.2578 56.0994 97.2578 56.2617C97.2578 56.424 97.3894 56.5556 97.5518 56.5556Z" fill="#1EA8DC"/>
<path d="M101.466 56.5556C101.628 56.5556 101.76 56.424 101.76 56.2617C101.76 56.0994 101.628 55.9678 101.466 55.9678C101.303 55.9678 101.172 56.0994 101.172 56.2617C101.172 56.424 101.303 56.5556 101.466 56.5556Z" fill="#1EA8DC"/>
<path d="M105.29 56.5556C105.452 56.5556 105.584 56.424 105.584 56.2617C105.584 56.0994 105.452 55.9678 105.29 55.9678C105.128 55.9678 104.996 56.0994 104.996 56.2617C104.996 56.424 105.128 56.5556 105.29 56.5556Z" fill="#1EA8DC"/>
<path d="M109.204 56.5556C109.366 56.5556 109.498 56.424 109.498 56.2617C109.498 56.0994 109.366 55.9678 109.204 55.9678C109.042 55.9678 108.91 56.0994 108.91 56.2617C108.91 56.424 109.042 56.5556 109.204 56.5556Z" fill="#1EA8DC"/>
<path d="M113.126 56.5551C113.288 56.5551 113.42 56.4236 113.42 56.2612C113.42 56.0989 113.288 55.9673 113.126 55.9673C112.964 55.9673 112.832 56.0989 112.832 56.2612C112.832 56.4236 112.964 56.5551 113.126 56.5551Z" fill="#1EA8DC"/>
<path d="M116.946 56.5556C117.109 56.5556 117.24 56.424 117.24 56.2617C117.24 56.0994 117.109 55.9678 116.946 55.9678C116.784 55.9678 116.652 56.0994 116.652 56.2617C116.652 56.424 116.784 56.5556 116.946 56.5556Z" fill="#1EA8DC"/>
<path d="M19.6611 60.4746C19.8235 60.4746 19.9551 60.343 19.9551 60.1806C19.9551 60.0183 19.8235 59.8867 19.6611 59.8867C19.4988 59.8867 19.3672 60.0183 19.3672 60.1806C19.3672 60.343 19.4988 60.4746 19.6611 60.4746Z" fill="#1EA8DC"/>
<path d="M23.583 60.4746C23.7453 60.4746 23.877 60.343 23.877 60.1807C23.877 60.0183 23.7453 59.8867 23.583 59.8867C23.4207 59.8867 23.2891 60.0183 23.2891 60.1807C23.2891 60.343 23.4207 60.4746 23.583 60.4746Z" fill="#1EA8DC"/>
<path d="M27.501 60.4746C27.6633 60.4746 27.7949 60.343 27.7949 60.1806C27.7949 60.0183 27.6633 59.8867 27.501 59.8867C27.3386 59.8867 27.207 60.0183 27.207 60.1806C27.207 60.343 27.3386 60.4746 27.501 60.4746Z" fill="#1EA8DC"/>
<path d="M31.3174 60.4746C31.4797 60.4746 31.6113 60.343 31.6113 60.1807C31.6113 60.0183 31.4797 59.8867 31.3174 59.8867C31.155 59.8867 31.0234 60.0183 31.0234 60.1807C31.0234 60.343 31.155 60.4746 31.3174 60.4746Z" fill="#1EA8DC"/>
<path d="M35.2393 60.4746C35.4016 60.4746 35.5332 60.343 35.5332 60.1806C35.5332 60.0183 35.4016 59.8867 35.2393 59.8867C35.0769 59.8867 34.9453 60.0183 34.9453 60.1806C34.9453 60.343 35.0769 60.4746 35.2393 60.4746Z" fill="#1EA8DC"/>
<path d="M39.1611 60.4746C39.3235 60.4746 39.4551 60.343 39.4551 60.1807C39.4551 60.0183 39.3235 59.8867 39.1611 59.8867C38.9988 59.8867 38.8672 60.0183 38.8672 60.1807C38.8672 60.343 38.9988 60.4746 39.1611 60.4746Z" fill="#1EA8DC"/>
<path d="M43.0791 60.4746C43.2414 60.4746 43.373 60.343 43.373 60.1806C43.373 60.0183 43.2414 59.8867 43.0791 59.8867C42.9168 59.8867 42.7852 60.0183 42.7852 60.1806C42.7852 60.343 42.9168 60.4746 43.0791 60.4746Z" fill="#1EA8DC"/>
<path d="M46.8994 60.4746C47.0618 60.4746 47.1934 60.343 47.1934 60.1807C47.1934 60.0183 47.0618 59.8867 46.8994 59.8867C46.7371 59.8867 46.6055 60.0183 46.6055 60.1807C46.6055 60.343 46.7371 60.4746 46.8994 60.4746Z" fill="#1EA8DC"/>
<path d="M50.8135 60.4746C50.9758 60.4746 51.1074 60.343 51.1074 60.1806C51.1074 60.0183 50.9758 59.8867 50.8135 59.8867C50.6511 59.8867 50.5195 60.0183 50.5195 60.1806C50.5195 60.343 50.6511 60.4746 50.8135 60.4746Z" fill="#1EA8DC"/>
<path d="M54.7314 60.4746C54.8938 60.4746 55.0254 60.343 55.0254 60.1806C55.0254 60.0183 54.8938 59.8867 54.7314 59.8867C54.5691 59.8867 54.4375 60.0183 54.4375 60.1806C54.4375 60.343 54.5691 60.4746 54.7314 60.4746Z" fill="#1EA8DC"/>
<path d="M58.6494 60.4746C58.8118 60.4746 58.9434 60.343 58.9434 60.1807C58.9434 60.0183 58.8118 59.8867 58.6494 59.8867C58.4871 59.8867 58.3555 60.0183 58.3555 60.1807C58.3555 60.343 58.4871 60.4746 58.6494 60.4746Z" fill="#1EA8DC"/>
<path d="M62.4697 60.4746C62.6321 60.4746 62.7637 60.343 62.7637 60.1806C62.7637 60.0183 62.6321 59.8867 62.4697 59.8867C62.3074 59.8867 62.1758 60.0183 62.1758 60.1806C62.1758 60.343 62.3074 60.4746 62.4697 60.4746Z" fill="#1EA8DC"/>
<path d="M66.3955 60.4746C66.5578 60.4746 66.6894 60.343 66.6894 60.1807C66.6894 60.0183 66.5578 59.8867 66.3955 59.8867C66.2332 59.8867 66.1016 60.0183 66.1016 60.1807C66.1016 60.343 66.2332 60.4746 66.3955 60.4746Z" fill="#1EA8DC"/>
<path d="M70.3096 60.4746C70.4719 60.4746 70.6035 60.343 70.6035 60.1807C70.6035 60.0183 70.4719 59.8867 70.3096 59.8867C70.1472 59.8867 70.0156 60.0183 70.0156 60.1807C70.0156 60.343 70.1472 60.4746 70.3096 60.4746Z" fill="#1EA8DC"/>
<path d="M74.1376 60.4746C74.2999 60.4746 74.4315 60.343 74.4315 60.1807C74.4315 60.0183 74.2999 59.8867 74.1376 59.8867C73.9752 59.8867 73.8438 60.0183 73.8438 60.1807C73.8438 60.343 73.9752 60.4746 74.1376 60.4746Z" fill="#1EA8DC"/>
<path d="M78.0518 60.4746C78.2141 60.4746 78.3457 60.343 78.3457 60.1807C78.3457 60.0183 78.2141 59.8867 78.0518 59.8867C77.8894 59.8867 77.7578 60.0183 77.7578 60.1807C77.7578 60.343 77.8894 60.4746 78.0518 60.4746Z" fill="#1EA8DC"/>
<path d="M81.9697 60.4746C82.1321 60.4746 82.2637 60.343 82.2637 60.1806C82.2637 60.0183 82.1321 59.8867 81.9697 59.8867C81.8074 59.8867 81.6758 60.0183 81.6758 60.1806C81.6758 60.343 81.8074 60.4746 81.9697 60.4746Z" fill="#1EA8DC"/>
<path d="M85.8838 60.4746C86.0461 60.4746 86.1777 60.343 86.1777 60.1806C86.1777 60.0183 86.0461 59.8867 85.8838 59.8867C85.7214 59.8867 85.5898 60.0183 85.5898 60.1806C85.5898 60.343 85.7214 60.4746 85.8838 60.4746Z" fill="#1EA8DC"/>
<path d="M89.7119 60.4746C89.8743 60.4746 90.0059 60.343 90.0059 60.1806C90.0059 60.0183 89.8743 59.8867 89.7119 59.8867C89.5496 59.8867 89.418 60.0183 89.418 60.1806C89.418 60.343 89.5496 60.4746 89.7119 60.4746Z" fill="#1EA8DC"/>
<path d="M93.6299 60.4746C93.7922 60.4746 93.9238 60.343 93.9238 60.1807C93.9238 60.0183 93.7922 59.8867 93.6299 59.8867C93.4675 59.8867 93.3359 60.0183 93.3359 60.1807C93.3359 60.343 93.4675 60.4746 93.6299 60.4746Z" fill="#1EA8DC"/>
<path d="M97.5518 60.4746C97.7141 60.4746 97.8457 60.343 97.8457 60.1806C97.8457 60.0183 97.7141 59.8867 97.5518 59.8867C97.3894 59.8867 97.2578 60.0183 97.2578 60.1806C97.2578 60.343 97.3894 60.4746 97.5518 60.4746Z" fill="#1EA8DC"/>
<path d="M101.466 60.4746C101.628 60.4746 101.76 60.343 101.76 60.1807C101.76 60.0183 101.628 59.8867 101.466 59.8867C101.303 59.8867 101.172 60.0183 101.172 60.1807C101.172 60.343 101.303 60.4746 101.466 60.4746Z" fill="#1EA8DC"/>
<path d="M105.29 60.4746C105.452 60.4746 105.584 60.343 105.584 60.1807C105.584 60.0183 105.452 59.8867 105.29 59.8867C105.128 59.8867 104.996 60.0183 104.996 60.1807C104.996 60.343 105.128 60.4746 105.29 60.4746Z" fill="#1EA8DC"/>
<path d="M109.204 60.4746C109.366 60.4746 109.498 60.343 109.498 60.1807C109.498 60.0183 109.366 59.8867 109.204 59.8867C109.042 59.8867 108.91 60.0183 108.91 60.1807C108.91 60.343 109.042 60.4746 109.204 60.4746Z" fill="#1EA8DC"/>
<path d="M113.126 60.4746C113.288 60.4746 113.42 60.343 113.42 60.1807C113.42 60.0183 113.288 59.8867 113.126 59.8867C112.964 59.8867 112.832 60.0183 112.832 60.1807C112.832 60.343 112.964 60.4746 113.126 60.4746Z" fill="#1EA8DC"/>
<path d="M116.946 60.4746C117.109 60.4746 117.24 60.343 117.24 60.1807C117.24 60.0183 117.109 59.8867 116.946 59.8867C116.784 59.8867 116.652 60.0183 116.652 60.1807C116.652 60.343 116.784 60.4746 116.946 60.4746Z" fill="#1EA8DC"/>
<path d="M19.6611 64.3931C19.8235 64.3931 19.9551 64.2615 19.9551 64.0991C19.9551 63.9368 19.8235 63.8052 19.6611 63.8052C19.4988 63.8052 19.3672 63.9368 19.3672 64.0991C19.3672 64.2615 19.4988 64.3931 19.6611 64.3931Z" fill="#1EA8DC"/>
<path d="M23.583 64.3916C23.7453 64.3916 23.877 64.26 23.877 64.0977C23.877 63.9353 23.7453 63.8037 23.583 63.8037C23.4207 63.8037 23.2891 63.9353 23.2891 64.0977C23.2891 64.26 23.4207 64.3916 23.583 64.3916Z" fill="#1EA8DC"/>
<path d="M27.501 64.3931C27.6633 64.3931 27.7949 64.2615 27.7949 64.0991C27.7949 63.9368 27.6633 63.8052 27.501 63.8052C27.3386 63.8052 27.207 63.9368 27.207 64.0991C27.207 64.2615 27.3386 64.3931 27.501 64.3931Z" fill="#1EA8DC"/>
<path d="M31.3174 64.3916C31.4797 64.3916 31.6113 64.26 31.6113 64.0977C31.6113 63.9353 31.4797 63.8037 31.3174 63.8037C31.155 63.8037 31.0234 63.9353 31.0234 64.0977C31.0234 64.26 31.155 64.3916 31.3174 64.3916Z" fill="#1EA8DC"/>
<path d="M35.2393 64.393C35.4016 64.393 35.5332 64.2614 35.5332 64.0991C35.5332 63.9368 35.4016 63.8052 35.2393 63.8052C35.0769 63.8052 34.9453 63.9368 34.9453 64.0991C34.9453 64.2614 35.0769 64.393 35.2393 64.393Z" fill="#1EA8DC"/>
<path d="M39.1611 64.3916C39.3235 64.3916 39.4551 64.26 39.4551 64.0977C39.4551 63.9353 39.3235 63.8037 39.1611 63.8037C38.9988 63.8037 38.8672 63.9353 38.8672 64.0977C38.8672 64.26 38.9988 64.3916 39.1611 64.3916Z" fill="#1EA8DC"/>
<path d="M43.0791 64.393C43.2414 64.393 43.373 64.2614 43.373 64.0991C43.373 63.9368 43.2414 63.8052 43.0791 63.8052C42.9168 63.8052 42.7852 63.9368 42.7852 64.0991C42.7852 64.2614 42.9168 64.393 43.0791 64.393Z" fill="#1EA8DC"/>
<path d="M46.8994 64.3916C47.0618 64.3916 47.1934 64.26 47.1934 64.0977C47.1934 63.9353 47.0618 63.8037 46.8994 63.8037C46.7371 63.8037 46.6055 63.9353 46.6055 64.0977C46.6055 64.26 46.7371 64.3916 46.8994 64.3916Z" fill="#1EA8DC"/>
<path d="M50.8135 64.3916C50.9758 64.3916 51.1074 64.26 51.1074 64.0977C51.1074 63.9353 50.9758 63.8037 50.8135 63.8037C50.6511 63.8037 50.5195 63.9353 50.5195 64.0977C50.5195 64.26 50.6511 64.3916 50.8135 64.3916Z" fill="#1EA8DC"/>
<path d="M54.7314 64.3916C54.8938 64.3916 55.0254 64.26 55.0254 64.0977C55.0254 63.9353 54.8938 63.8037 54.7314 63.8037C54.5691 63.8037 54.4375 63.9353 54.4375 64.0977C54.4375 64.26 54.5691 64.3916 54.7314 64.3916Z" fill="#1EA8DC"/>
<path d="M58.6494 64.3916C58.8118 64.3916 58.9434 64.26 58.9434 64.0977C58.9434 63.9353 58.8118 63.8037 58.6494 63.8037C58.4871 63.8037 58.3555 63.9353 58.3555 64.0977C58.3555 64.26 58.4871 64.3916 58.6494 64.3916Z" fill="#1EA8DC"/>
<path d="M62.4697 64.3931C62.6321 64.3931 62.7637 64.2615 62.7637 64.0991C62.7637 63.9368 62.6321 63.8052 62.4697 63.8052C62.3074 63.8052 62.1758 63.9368 62.1758 64.0991C62.1758 64.2615 62.3074 64.3931 62.4697 64.3931Z" fill="#1EA8DC"/>
<path d="M66.3955 64.3931C66.5578 64.3931 66.6894 64.2615 66.6894 64.0991C66.6894 63.9368 66.5578 63.8052 66.3955 63.8052C66.2332 63.8052 66.1016 63.9368 66.1016 64.0991C66.1016 64.2615 66.2332 64.3931 66.3955 64.3931Z" fill="#1EA8DC"/>
<path d="M70.3096 64.3916C70.4719 64.3916 70.6035 64.26 70.6035 64.0977C70.6035 63.9353 70.4719 63.8037 70.3096 63.8037C70.1472 63.8037 70.0156 63.9353 70.0156 64.0977C70.0156 64.26 70.1472 64.3916 70.3096 64.3916Z" fill="#1EA8DC"/>
<path d="M74.1376 64.3931C74.2999 64.3931 74.4315 64.2615 74.4315 64.0991C74.4315 63.9368 74.2999 63.8052 74.1376 63.8052C73.9752 63.8052 73.8438 63.9368 73.8438 64.0991C73.8438 64.2615 73.9752 64.3931 74.1376 64.3931Z" fill="#1EA8DC"/>
<path d="M78.0518 64.3916C78.2141 64.3916 78.3457 64.26 78.3457 64.0977C78.3457 63.9353 78.2141 63.8037 78.0518 63.8037C77.8894 63.8037 77.7578 63.9353 77.7578 64.0977C77.7578 64.26 77.8894 64.3916 78.0518 64.3916Z" fill="#1EA8DC"/>
<path d="M81.9697 64.3921C82.1321 64.3921 82.2637 64.2605 82.2637 64.0981C82.2637 63.9358 82.1321 63.8042 81.9697 63.8042C81.8074 63.8042 81.6758 63.9358 81.6758 64.0981C81.6758 64.2605 81.8074 64.3921 81.9697 64.3921Z" fill="#1EA8DC"/>
<path d="M85.8838 64.393C86.0461 64.393 86.1777 64.2614 86.1777 64.0991C86.1777 63.9368 86.0461 63.8052 85.8838 63.8052C85.7214 63.8052 85.5898 63.9368 85.5898 64.0991C85.5898 64.2614 85.7214 64.393 85.8838 64.393Z" fill="#1EA8DC"/>
<path d="M89.7119 64.3931C89.8743 64.3931 90.0059 64.2615 90.0059 64.0991C90.0059 63.9368 89.8743 63.8052 89.7119 63.8052C89.5496 63.8052 89.418 63.9368 89.418 64.0991C89.418 64.2615 89.5496 64.3931 89.7119 64.3931Z" fill="#1EA8DC"/>
<path d="M93.6299 64.3916C93.7922 64.3916 93.9238 64.26 93.9238 64.0977C93.9238 63.9353 93.7922 63.8037 93.6299 63.8037C93.4675 63.8037 93.3359 63.9353 93.3359 64.0977C93.3359 64.26 93.4675 64.3916 93.6299 64.3916Z" fill="#1EA8DC"/>
<path d="M97.5518 64.3916C97.7141 64.3916 97.8457 64.26 97.8457 64.0977C97.8457 63.9353 97.7141 63.8037 97.5518 63.8037C97.3894 63.8037 97.2578 63.9353 97.2578 64.0977C97.2578 64.26 97.3894 64.3916 97.5518 64.3916Z" fill="#1EA8DC"/>
<path d="M101.466 64.3916C101.628 64.3916 101.76 64.26 101.76 64.0977C101.76 63.9353 101.628 63.8037 101.466 63.8037C101.303 63.8037 101.172 63.9353 101.172 64.0977C101.172 64.26 101.303 64.3916 101.466 64.3916Z" fill="#1EA8DC"/>
<path d="M105.29 64.3916C105.452 64.3916 105.584 64.26 105.584 64.0977C105.584 63.9353 105.452 63.8037 105.29 63.8037C105.128 63.8037 104.996 63.9353 104.996 64.0977C104.996 64.26 105.128 64.3916 105.29 64.3916Z" fill="#1EA8DC"/>
<path d="M109.204 64.3916C109.366 64.3916 109.498 64.26 109.498 64.0977C109.498 63.9353 109.366 63.8037 109.204 63.8037C109.042 63.8037 108.91 63.9353 108.91 64.0977C108.91 64.26 109.042 64.3916 109.204 64.3916Z" fill="#1EA8DC"/>
<path d="M113.126 64.3931C113.288 64.3931 113.42 64.2615 113.42 64.0991C113.42 63.9368 113.288 63.8052 113.126 63.8052C112.964 63.8052 112.832 63.9368 112.832 64.0991C112.832 64.2615 112.964 64.3931 113.126 64.3931Z" fill="#1EA8DC"/>
<path d="M116.946 64.3916C117.109 64.3916 117.24 64.26 117.24 64.0977C117.24 63.9353 117.109 63.8037 116.946 63.8037C116.784 63.8037 116.652 63.9353 116.652 64.0977C116.652 64.26 116.784 64.3916 116.946 64.3916Z" fill="#1EA8DC"/>
<path d="M19.6611 68.3115C19.8235 68.3115 19.9551 68.1799 19.9551 68.0175C19.9551 67.8552 19.8235 67.7236 19.6611 67.7236C19.4988 67.7236 19.3672 67.8552 19.3672 68.0175C19.3672 68.1799 19.4988 68.3115 19.6611 68.3115Z" fill="#1EA8DC"/>
<path d="M23.583 68.3115C23.7453 68.3115 23.877 68.1799 23.877 68.0175C23.877 67.8552 23.7453 67.7236 23.583 67.7236C23.4207 67.7236 23.2891 67.8552 23.2891 68.0175C23.2891 68.1799 23.4207 68.3115 23.583 68.3115Z" fill="#1EA8DC"/>
<path d="M27.501 68.3115C27.6633 68.3115 27.7949 68.1799 27.7949 68.0175C27.7949 67.8552 27.6633 67.7236 27.501 67.7236C27.3386 67.7236 27.207 67.8552 27.207 68.0175C27.207 68.1799 27.3386 68.3115 27.501 68.3115Z" fill="#1EA8DC"/>
<path d="M31.3174 68.3115C31.4797 68.3115 31.6113 68.1799 31.6113 68.0175C31.6113 67.8552 31.4797 67.7236 31.3174 67.7236C31.155 67.7236 31.0234 67.8552 31.0234 68.0175C31.0234 68.1799 31.155 68.3115 31.3174 68.3115Z" fill="#1EA8DC"/>
<path d="M35.2393 68.3115C35.4016 68.3115 35.5332 68.1799 35.5332 68.0176C35.5332 67.8552 35.4016 67.7236 35.2393 67.7236C35.0769 67.7236 34.9453 67.8552 34.9453 68.0176C34.9453 68.1799 35.0769 68.3115 35.2393 68.3115Z" fill="#1EA8DC"/>
<path d="M39.1611 68.3115C39.3235 68.3115 39.4551 68.1799 39.4551 68.0175C39.4551 67.8552 39.3235 67.7236 39.1611 67.7236C38.9988 67.7236 38.8672 67.8552 38.8672 68.0175C38.8672 68.1799 38.9988 68.3115 39.1611 68.3115Z" fill="#1EA8DC"/>
<path d="M43.0791 68.3115C43.2414 68.3115 43.373 68.1799 43.373 68.0176C43.373 67.8552 43.2414 67.7236 43.0791 67.7236C42.9168 67.7236 42.7852 67.8552 42.7852 68.0176C42.7852 68.1799 42.9168 68.3115 43.0791 68.3115Z" fill="#1EA8DC"/>
<path d="M46.8994 68.3115C47.0618 68.3115 47.1934 68.1799 47.1934 68.0175C47.1934 67.8552 47.0618 67.7236 46.8994 67.7236C46.7371 67.7236 46.6055 67.8552 46.6055 68.0175C46.6055 68.1799 46.7371 68.3115 46.8994 68.3115Z" fill="#1EA8DC"/>
<path d="M50.8135 68.3115C50.9758 68.3115 51.1074 68.1799 51.1074 68.0175C51.1074 67.8552 50.9758 67.7236 50.8135 67.7236C50.6511 67.7236 50.5195 67.8552 50.5195 68.0175C50.5195 68.1799 50.6511 68.3115 50.8135 68.3115Z" fill="#1EA8DC"/>
<path d="M54.7314 68.3115C54.8938 68.3115 55.0254 68.1799 55.0254 68.0175C55.0254 67.8552 54.8938 67.7236 54.7314 67.7236C54.5691 67.7236 54.4375 67.8552 54.4375 68.0175C54.4375 68.1799 54.5691 68.3115 54.7314 68.3115Z" fill="#1EA8DC"/>
<path d="M58.6494 68.3115C58.8118 68.3115 58.9434 68.1799 58.9434 68.0175C58.9434 67.8552 58.8118 67.7236 58.6494 67.7236C58.4871 67.7236 58.3555 67.8552 58.3555 68.0175C58.3555 68.1799 58.4871 68.3115 58.6494 68.3115Z" fill="#1EA8DC"/>
<path d="M62.4697 68.3111C62.6321 68.3111 62.7637 68.1794 62.7637 68.017C62.7637 67.8547 62.6321 67.7231 62.4697 67.7231C62.3074 67.7231 62.1758 67.8547 62.1758 68.017C62.1758 68.1794 62.3074 68.3111 62.4697 68.3111Z" fill="#1EA8DC"/>
<path d="M66.3955 68.3115C66.5578 68.3115 66.6894 68.1799 66.6894 68.0175C66.6894 67.8552 66.5578 67.7236 66.3955 67.7236C66.2332 67.7236 66.1016 67.8552 66.1016 68.0175C66.1016 68.1799 66.2332 68.3115 66.3955 68.3115Z" fill="#1EA8DC"/>
<path d="M70.3096 68.3115C70.4719 68.3115 70.6035 68.1799 70.6035 68.0175C70.6035 67.8552 70.4719 67.7236 70.3096 67.7236C70.1472 67.7236 70.0156 67.8552 70.0156 68.0175C70.0156 68.1799 70.1472 68.3115 70.3096 68.3115Z" fill="#1EA8DC"/>
<path d="M74.1376 68.3115C74.2999 68.3115 74.4315 68.1799 74.4315 68.0175C74.4315 67.8552 74.2999 67.7236 74.1376 67.7236C73.9752 67.7236 73.8438 67.8552 73.8438 68.0175C73.8438 68.1799 73.9752 68.3115 74.1376 68.3115Z" fill="#1EA8DC"/>
<path d="M78.0518 68.3115C78.2141 68.3115 78.3457 68.1799 78.3457 68.0175C78.3457 67.8552 78.2141 67.7236 78.0518 67.7236C77.8894 67.7236 77.7578 67.8552 77.7578 68.0175C77.7578 68.1799 77.8894 68.3115 78.0518 68.3115Z" fill="#1EA8DC"/>
<path d="M81.9697 68.3115C82.1321 68.3115 82.2637 68.1799 82.2637 68.0176C82.2637 67.8552 82.1321 67.7236 81.9697 67.7236C81.8074 67.7236 81.6758 67.8552 81.6758 68.0176C81.6758 68.1799 81.8074 68.3115 81.9697 68.3115Z" fill="#1EA8DC"/>
<path d="M85.8838 68.3115C86.0461 68.3115 86.1777 68.1799 86.1777 68.0176C86.1777 67.8552 86.0461 67.7236 85.8838 67.7236C85.7214 67.7236 85.5898 67.8552 85.5898 68.0176C85.5898 68.1799 85.7214 68.3115 85.8838 68.3115Z" fill="#1EA8DC"/>
<path d="M89.7119 68.3115C89.8743 68.3115 90.0059 68.1799 90.0059 68.0175C90.0059 67.8552 89.8743 67.7236 89.7119 67.7236C89.5496 67.7236 89.418 67.8552 89.418 68.0175C89.418 68.1799 89.5496 68.3115 89.7119 68.3115Z" fill="#1EA8DC"/>
<path d="M93.6299 68.3115C93.7922 68.3115 93.9238 68.1799 93.9238 68.0175C93.9238 67.8552 93.7922 67.7236 93.6299 67.7236C93.4675 67.7236 93.3359 67.8552 93.3359 68.0175C93.3359 68.1799 93.4675 68.3115 93.6299 68.3115Z" fill="#1EA8DC"/>
<path d="M97.5518 68.3115C97.7141 68.3115 97.8457 68.1799 97.8457 68.0175C97.8457 67.8552 97.7141 67.7236 97.5518 67.7236C97.3894 67.7236 97.2578 67.8552 97.2578 68.0175C97.2578 68.1799 97.3894 68.3115 97.5518 68.3115Z" fill="#1EA8DC"/>
<path d="M101.466 68.3115C101.628 68.3115 101.76 68.1799 101.76 68.0175C101.76 67.8552 101.628 67.7236 101.466 67.7236C101.303 67.7236 101.172 67.8552 101.172 68.0175C101.172 68.1799 101.303 68.3115 101.466 68.3115Z" fill="#1EA8DC"/>
<path d="M105.29 68.3115C105.452 68.3115 105.584 68.1799 105.584 68.0175C105.584 67.8552 105.452 67.7236 105.29 67.7236C105.128 67.7236 104.996 67.8552 104.996 68.0175C104.996 68.1799 105.128 68.3115 105.29 68.3115Z" fill="#1EA8DC"/>
<path d="M109.204 68.3115C109.366 68.3115 109.498 68.1799 109.498 68.0175C109.498 67.8552 109.366 67.7236 109.204 67.7236C109.042 67.7236 108.91 67.8552 108.91 68.0175C108.91 68.1799 109.042 68.3115 109.204 68.3115Z" fill="#1EA8DC"/>
<path d="M113.126 68.312C113.288 68.312 113.42 68.1804 113.42 68.018C113.42 67.8557 113.288 67.7241 113.126 67.7241C112.964 67.7241 112.832 67.8557 112.832 68.018C112.832 68.1804 112.964 68.312 113.126 68.312Z" fill="#1EA8DC"/>
<path d="M116.946 68.3115C117.109 68.3115 117.24 68.1799 117.24 68.0175C117.24 67.8552 117.109 67.7236 116.946 67.7236C116.784 67.7236 116.652 67.8552 116.652 68.0175C116.652 68.1799 116.784 68.3115 116.946 68.3115Z" fill="#1EA8DC"/>
<path d="M19.6611 72.3281C19.8235 72.3281 19.9551 72.1965 19.9551 72.0342C19.9551 71.8718 19.8235 71.7402 19.6611 71.7402C19.4988 71.7402 19.3672 71.8718 19.3672 72.0342C19.3672 72.1965 19.4988 72.3281 19.6611 72.3281Z" fill="#1EA8DC"/>
<path d="M23.583 72.3281C23.7453 72.3281 23.877 72.1965 23.877 72.0342C23.877 71.8718 23.7453 71.7402 23.583 71.7402C23.4207 71.7402 23.2891 71.8718 23.2891 72.0342C23.2891 72.1965 23.4207 72.3281 23.583 72.3281Z" fill="#1EA8DC"/>
<path d="M27.501 72.3281C27.6633 72.3281 27.7949 72.1965 27.7949 72.0342C27.7949 71.8718 27.6633 71.7402 27.501 71.7402C27.3386 71.7402 27.207 71.8718 27.207 72.0342C27.207 72.1965 27.3386 72.3281 27.501 72.3281Z" fill="#1EA8DC"/>
<path d="M31.3174 72.3281C31.4797 72.3281 31.6113 72.1965 31.6113 72.0342C31.6113 71.8718 31.4797 71.7402 31.3174 71.7402C31.155 71.7402 31.0234 71.8718 31.0234 72.0342C31.0234 72.1965 31.155 72.3281 31.3174 72.3281Z" fill="#1EA8DC"/>
<path d="M35.2393 72.328C35.4016 72.328 35.5332 72.1964 35.5332 72.0341C35.5332 71.8718 35.4016 71.7402 35.2393 71.7402C35.0769 71.7402 34.9453 71.8718 34.9453 72.0341C34.9453 72.1964 35.0769 72.328 35.2393 72.328Z" fill="#1EA8DC"/>
<path d="M39.1611 72.3281C39.3235 72.3281 39.4551 72.1965 39.4551 72.0342C39.4551 71.8718 39.3235 71.7402 39.1611 71.7402C38.9988 71.7402 38.8672 71.8718 38.8672 72.0342C38.8672 72.1965 38.9988 72.3281 39.1611 72.3281Z" fill="#1EA8DC"/>
<path d="M43.0791 72.328C43.2414 72.328 43.373 72.1964 43.373 72.0341C43.373 71.8718 43.2414 71.7402 43.0791 71.7402C42.9168 71.7402 42.7852 71.8718 42.7852 72.0341C42.7852 72.1964 42.9168 72.328 43.0791 72.328Z" fill="#1EA8DC"/>
<path d="M46.8994 72.3281C47.0618 72.3281 47.1934 72.1965 47.1934 72.0342C47.1934 71.8718 47.0618 71.7402 46.8994 71.7402C46.7371 71.7402 46.6055 71.8718 46.6055 72.0342C46.6055 72.1965 46.7371 72.3281 46.8994 72.3281Z" fill="#1EA8DC"/>
<path d="M50.8135 72.3281C50.9758 72.3281 51.1074 72.1965 51.1074 72.0342C51.1074 71.8718 50.9758 71.7402 50.8135 71.7402C50.6511 71.7402 50.5195 71.8718 50.5195 72.0342C50.5195 72.1965 50.6511 72.3281 50.8135 72.3281Z" fill="#1EA8DC"/>
<path d="M54.7314 72.3281C54.8938 72.3281 55.0254 72.1965 55.0254 72.0342C55.0254 71.8718 54.8938 71.7402 54.7314 71.7402C54.5691 71.7402 54.4375 71.8718 54.4375 72.0342C54.4375 72.1965 54.5691 72.3281 54.7314 72.3281Z" fill="#1EA8DC"/>
<path d="M58.6494 72.3281C58.8118 72.3281 58.9434 72.1965 58.9434 72.0342C58.9434 71.8718 58.8118 71.7402 58.6494 71.7402C58.4871 71.7402 58.3555 71.8718 58.3555 72.0342C58.3555 72.1965 58.4871 72.3281 58.6494 72.3281Z" fill="#1EA8DC"/>
<path d="M62.4697 72.3281C62.6321 72.3281 62.7637 72.1965 62.7637 72.0342C62.7637 71.8718 62.6321 71.7402 62.4697 71.7402C62.3074 71.7402 62.1758 71.8718 62.1758 72.0342C62.1758 72.1965 62.3074 72.3281 62.4697 72.3281Z" fill="#1EA8DC"/>
<path d="M66.3955 72.3281C66.5578 72.3281 66.6894 72.1965 66.6894 72.0342C66.6894 71.8718 66.5578 71.7402 66.3955 71.7402C66.2332 71.7402 66.1016 71.8718 66.1016 72.0342C66.1016 72.1965 66.2332 72.3281 66.3955 72.3281Z" fill="#1EA8DC"/>
<path d="M70.3096 72.3281C70.4719 72.3281 70.6035 72.1965 70.6035 72.0342C70.6035 71.8718 70.4719 71.7402 70.3096 71.7402C70.1472 71.7402 70.0156 71.8718 70.0156 72.0342C70.0156 72.1965 70.1472 72.3281 70.3096 72.3281Z" fill="#1EA8DC"/>
<path d="M74.1376 72.3281C74.2999 72.3281 74.4315 72.1965 74.4315 72.0342C74.4315 71.8718 74.2999 71.7402 74.1376 71.7402C73.9752 71.7402 73.8438 71.8718 73.8438 72.0342C73.8438 72.1965 73.9752 72.3281 74.1376 72.3281Z" fill="#1EA8DC"/>
<path d="M78.0518 72.3281C78.2141 72.3281 78.3457 72.1965 78.3457 72.0342C78.3457 71.8718 78.2141 71.7402 78.0518 71.7402C77.8894 71.7402 77.7578 71.8718 77.7578 72.0342C77.7578 72.1965 77.8894 72.3281 78.0518 72.3281Z" fill="#1EA8DC"/>
<path d="M81.9697 72.328C82.1321 72.328 82.2637 72.1964 82.2637 72.0341C82.2637 71.8718 82.1321 71.7402 81.9697 71.7402C81.8074 71.7402 81.6758 71.8718 81.6758 72.0341C81.6758 72.1964 81.8074 72.328 81.9697 72.328Z" fill="#1EA8DC"/>
<path d="M85.8838 72.328C86.0461 72.328 86.1777 72.1964 86.1777 72.0341C86.1777 71.8718 86.0461 71.7402 85.8838 71.7402C85.7214 71.7402 85.5898 71.8718 85.5898 72.0341C85.5898 72.1964 85.7214 72.328 85.8838 72.328Z" fill="#1EA8DC"/>
<path d="M89.7119 72.3281C89.8743 72.3281 90.0059 72.1965 90.0059 72.0342C90.0059 71.8718 89.8743 71.7402 89.7119 71.7402C89.5496 71.7402 89.418 71.8718 89.418 72.0342C89.418 72.1965 89.5496 72.3281 89.7119 72.3281Z" fill="#1EA8DC"/>
<path d="M93.6299 72.3281C93.7922 72.3281 93.9238 72.1965 93.9238 72.0342C93.9238 71.8718 93.7922 71.7402 93.6299 71.7402C93.4675 71.7402 93.3359 71.8718 93.3359 72.0342C93.3359 72.1965 93.4675 72.3281 93.6299 72.3281Z" fill="#1EA8DC"/>
<path d="M97.5518 72.3281C97.7141 72.3281 97.8457 72.1965 97.8457 72.0342C97.8457 71.8718 97.7141 71.7402 97.5518 71.7402C97.3894 71.7402 97.2578 71.8718 97.2578 72.0342C97.2578 72.1965 97.3894 72.3281 97.5518 72.3281Z" fill="#1EA8DC"/>
<path d="M101.466 72.3281C101.628 72.3281 101.76 72.1965 101.76 72.0342C101.76 71.8718 101.628 71.7402 101.466 71.7402C101.303 71.7402 101.172 71.8718 101.172 72.0342C101.172 72.1965 101.303 72.3281 101.466 72.3281Z" fill="#1EA8DC"/>
<path d="M105.29 72.3281C105.452 72.3281 105.584 72.1965 105.584 72.0342C105.584 71.8718 105.452 71.7402 105.29 71.7402C105.128 71.7402 104.996 71.8718 104.996 72.0342C104.996 72.1965 105.128 72.3281 105.29 72.3281Z" fill="#1EA8DC"/>
<path d="M109.204 72.3281C109.366 72.3281 109.498 72.1965 109.498 72.0342C109.498 71.8718 109.366 71.7402 109.204 71.7402C109.042 71.7402 108.91 71.8718 108.91 72.0342C108.91 72.1965 109.042 72.3281 109.204 72.3281Z" fill="#1EA8DC"/>
<path d="M113.126 72.3281C113.288 72.3281 113.42 72.1965 113.42 72.0342C113.42 71.8718 113.288 71.7402 113.126 71.7402C112.964 71.7402 112.832 71.8718 112.832 72.0342C112.832 72.1965 112.964 72.3281 113.126 72.3281Z" fill="#1EA8DC"/>
<path d="M116.946 72.3281C117.109 72.3281 117.24 72.1965 117.24 72.0342C117.24 71.8718 117.109 71.7402 116.946 71.7402C116.784 71.7402 116.652 71.8718 116.652 72.0342C116.652 72.1965 116.784 72.3281 116.946 72.3281Z" fill="#1EA8DC"/>
<path d="M19.6611 76.2466C19.8235 76.2466 19.9551 76.115 19.9551 75.9526C19.9551 75.7903 19.8235 75.6587 19.6611 75.6587C19.4988 75.6587 19.3672 75.7903 19.3672 75.9526C19.3672 76.115 19.4988 76.2466 19.6611 76.2466Z" fill="#1EA8DC"/>
<path d="M23.583 76.2461C23.7453 76.2461 23.877 76.1145 23.877 75.9522C23.877 75.7898 23.7453 75.6582 23.583 75.6582C23.4207 75.6582 23.2891 75.7898 23.2891 75.9522C23.2891 76.1145 23.4207 76.2461 23.583 76.2461Z" fill="#1EA8DC"/>
<path d="M27.501 76.2466C27.6633 76.2466 27.7949 76.115 27.7949 75.9526C27.7949 75.7903 27.6633 75.6587 27.501 75.6587C27.3386 75.6587 27.207 75.7903 27.207 75.9526C27.207 76.115 27.3386 76.2466 27.501 76.2466Z" fill="#1EA8DC"/>
<path d="M31.3174 76.2461C31.4797 76.2461 31.6113 76.1145 31.6113 75.9522C31.6113 75.7898 31.4797 75.6582 31.3174 75.6582C31.155 75.6582 31.0234 75.7898 31.0234 75.9522C31.0234 76.1145 31.155 76.2461 31.3174 76.2461Z" fill="#1EA8DC"/>
<path d="M35.2393 76.2466C35.4016 76.2466 35.5332 76.115 35.5332 75.9526C35.5332 75.7903 35.4016 75.6587 35.2393 75.6587C35.0769 75.6587 34.9453 75.7903 34.9453 75.9526C34.9453 76.115 35.0769 76.2466 35.2393 76.2466Z" fill="#1EA8DC"/>
<path d="M39.1611 76.2461C39.3235 76.2461 39.4551 76.1145 39.4551 75.9522C39.4551 75.7898 39.3235 75.6582 39.1611 75.6582C38.9988 75.6582 38.8672 75.7898 38.8672 75.9522C38.8672 76.1145 38.9988 76.2461 39.1611 76.2461Z" fill="#1EA8DC"/>
<path d="M43.0791 76.2466C43.2414 76.2466 43.373 76.115 43.373 75.9526C43.373 75.7903 43.2414 75.6587 43.0791 75.6587C42.9168 75.6587 42.7852 75.7903 42.7852 75.9526C42.7852 76.115 42.9168 76.2466 43.0791 76.2466Z" fill="#1EA8DC"/>
<path d="M46.8994 76.2461C47.0618 76.2461 47.1934 76.1145 47.1934 75.9522C47.1934 75.7898 47.0618 75.6582 46.8994 75.6582C46.7371 75.6582 46.6055 75.7898 46.6055 75.9522C46.6055 76.1145 46.7371 76.2461 46.8994 76.2461Z" fill="#1EA8DC"/>
<path d="M50.8135 76.2466C50.9758 76.2466 51.1074 76.115 51.1074 75.9526C51.1074 75.7903 50.9758 75.6587 50.8135 75.6587C50.6511 75.6587 50.5195 75.7903 50.5195 75.9526C50.5195 76.115 50.6511 76.2466 50.8135 76.2466Z" fill="#1EA8DC"/>
<path d="M54.7314 76.2466C54.8938 76.2466 55.0254 76.115 55.0254 75.9526C55.0254 75.7903 54.8938 75.6587 54.7314 75.6587C54.5691 75.6587 54.4375 75.7903 54.4375 75.9526C54.4375 76.115 54.5691 76.2466 54.7314 76.2466Z" fill="#1EA8DC"/>
<path d="M58.6494 76.2461C58.8118 76.2461 58.9434 76.1145 58.9434 75.9522C58.9434 75.7898 58.8118 75.6582 58.6494 75.6582C58.4871 75.6582 58.3555 75.7898 58.3555 75.9522C58.3555 76.1145 58.4871 76.2461 58.6494 76.2461Z" fill="#1EA8DC"/>
<path d="M62.4697 76.2461C62.6321 76.2461 62.7637 76.1145 62.7637 75.9522C62.7637 75.7898 62.6321 75.6582 62.4697 75.6582C62.3074 75.6582 62.1758 75.7898 62.1758 75.9522C62.1758 76.1145 62.3074 76.2461 62.4697 76.2461Z" fill="#1EA8DC"/>
<path d="M66.3955 76.2461C66.5578 76.2461 66.6894 76.1145 66.6894 75.9522C66.6894 75.7898 66.5578 75.6582 66.3955 75.6582C66.2332 75.6582 66.1016 75.7898 66.1016 75.9522C66.1016 76.1145 66.2332 76.2461 66.3955 76.2461Z" fill="#1EA8DC"/>
<path d="M70.3096 76.2461C70.4719 76.2461 70.6035 76.1145 70.6035 75.9522C70.6035 75.7898 70.4719 75.6582 70.3096 75.6582C70.1472 75.6582 70.0156 75.7898 70.0156 75.9522C70.0156 76.1145 70.1472 76.2461 70.3096 76.2461Z" fill="#1EA8DC"/>
<path d="M74.1376 76.2466C74.2999 76.2466 74.4315 76.115 74.4315 75.9526C74.4315 75.7903 74.2999 75.6587 74.1376 75.6587C73.9752 75.6587 73.8438 75.7903 73.8438 75.9526C73.8438 76.115 73.9752 76.2466 74.1376 76.2466Z" fill="#1EA8DC"/>
<path d="M78.0518 76.2461C78.2141 76.2461 78.3457 76.1145 78.3457 75.9522C78.3457 75.7898 78.2141 75.6582 78.0518 75.6582C77.8894 75.6582 77.7578 75.7898 77.7578 75.9522C77.7578 76.1145 77.8894 76.2461 78.0518 76.2461Z" fill="#1EA8DC"/>
<path d="M81.9697 76.2466C82.1321 76.2466 82.2637 76.115 82.2637 75.9526C82.2637 75.7903 82.1321 75.6587 81.9697 75.6587C81.8074 75.6587 81.6758 75.7903 81.6758 75.9526C81.6758 76.115 81.8074 76.2466 81.9697 76.2466Z" fill="#1EA8DC"/>
<path d="M85.8838 76.2466C86.0461 76.2466 86.1777 76.115 86.1777 75.9526C86.1777 75.7903 86.0461 75.6587 85.8838 75.6587C85.7214 75.6587 85.5898 75.7903 85.5898 75.9526C85.5898 76.115 85.7214 76.2466 85.8838 76.2466Z" fill="#1EA8DC"/>
<path d="M89.7119 76.2466C89.8743 76.2466 90.0059 76.115 90.0059 75.9526C90.0059 75.7903 89.8743 75.6587 89.7119 75.6587C89.5496 75.6587 89.418 75.7903 89.418 75.9526C89.418 76.115 89.5496 76.2466 89.7119 76.2466Z" fill="#1EA8DC"/>
<path d="M93.6299 76.2461C93.7922 76.2461 93.9238 76.1145 93.9238 75.9522C93.9238 75.7898 93.7922 75.6582 93.6299 75.6582C93.4675 75.6582 93.3359 75.7898 93.3359 75.9522C93.3359 76.1145 93.4675 76.2461 93.6299 76.2461Z" fill="#1EA8DC"/>
<path d="M97.5518 76.2466C97.7141 76.2466 97.8457 76.115 97.8457 75.9526C97.8457 75.7903 97.7141 75.6587 97.5518 75.6587C97.3894 75.6587 97.2578 75.7903 97.2578 75.9526C97.2578 76.115 97.3894 76.2466 97.5518 76.2466Z" fill="#1EA8DC"/>
<path d="M101.466 76.2461C101.628 76.2461 101.76 76.1145 101.76 75.9522C101.76 75.7898 101.628 75.6582 101.466 75.6582C101.303 75.6582 101.172 75.7898 101.172 75.9522C101.172 76.1145 101.303 76.2461 101.466 76.2461Z" fill="#1EA8DC"/>
<path d="M105.29 76.2461C105.452 76.2461 105.584 76.1145 105.584 75.9522C105.584 75.7898 105.452 75.6582 105.29 75.6582C105.128 75.6582 104.996 75.7898 104.996 75.9522C104.996 76.1145 105.128 76.2461 105.29 76.2461Z" fill="#1EA8DC"/>
<path d="M109.204 76.2461C109.366 76.2461 109.498 76.1145 109.498 75.9522C109.498 75.7898 109.366 75.6582 109.204 75.6582C109.042 75.6582 108.91 75.7898 108.91 75.9522C108.91 76.1145 109.042 76.2461 109.204 76.2461Z" fill="#1EA8DC"/>
<path d="M113.126 76.2466C113.288 76.2466 113.42 76.115 113.42 75.9526C113.42 75.7903 113.288 75.6587 113.126 75.6587C112.964 75.6587 112.832 75.7903 112.832 75.9526C112.832 76.115 112.964 76.2466 113.126 76.2466Z" fill="#1EA8DC"/>
<path d="M116.946 76.2461C117.109 76.2461 117.24 76.1145 117.24 75.9522C117.24 75.7898 117.109 75.6582 116.946 75.6582C116.784 75.6582 116.652 75.7898 116.652 75.9522C116.652 76.1145 116.784 76.2461 116.946 76.2461Z" fill="#1EA8DC"/>
<path d="M19.6611 80.1655C19.8235 80.1655 19.9551 80.0339 19.9551 79.8715C19.9551 79.7092 19.8235 79.5776 19.6611 79.5776C19.4988 79.5776 19.3672 79.7092 19.3672 79.8715C19.3672 80.0339 19.4988 80.1655 19.6611 80.1655Z" fill="#1EA8DC"/>
<path d="M23.583 80.166C23.7453 80.166 23.877 80.0344 23.877 79.872C23.877 79.7097 23.7453 79.5781 23.583 79.5781C23.4207 79.5781 23.2891 79.7097 23.2891 79.872C23.2891 80.0344 23.4207 80.166 23.583 80.166Z" fill="#1EA8DC"/>
<path d="M27.501 80.1655C27.6633 80.1655 27.7949 80.0339 27.7949 79.8715C27.7949 79.7092 27.6633 79.5776 27.501 79.5776C27.3386 79.5776 27.207 79.7092 27.207 79.8715C27.207 80.0339 27.3386 80.1655 27.501 80.1655Z" fill="#1EA8DC"/>
<path d="M31.3174 80.166C31.4797 80.166 31.6113 80.0344 31.6113 79.872C31.6113 79.7097 31.4797 79.5781 31.3174 79.5781C31.155 79.5781 31.0234 79.7097 31.0234 79.872C31.0234 80.0344 31.155 80.166 31.3174 80.166Z" fill="#1EA8DC"/>
<path d="M35.2393 80.1655C35.4016 80.1655 35.5332 80.0339 35.5332 79.8715C35.5332 79.7092 35.4016 79.5776 35.2393 79.5776C35.0769 79.5776 34.9453 79.7092 34.9453 79.8715C34.9453 80.0339 35.0769 80.1655 35.2393 80.1655Z" fill="#1EA8DC"/>
<path d="M39.1611 80.166C39.3235 80.166 39.4551 80.0344 39.4551 79.872C39.4551 79.7097 39.3235 79.5781 39.1611 79.5781C38.9988 79.5781 38.8672 79.7097 38.8672 79.872C38.8672 80.0344 38.9988 80.166 39.1611 80.166Z" fill="#1EA8DC"/>
<path d="M43.0791 80.1655C43.2414 80.1655 43.373 80.0339 43.373 79.8715C43.373 79.7092 43.2414 79.5776 43.0791 79.5776C42.9168 79.5776 42.7852 79.7092 42.7852 79.8715C42.7852 80.0339 42.9168 80.1655 43.0791 80.1655Z" fill="#1EA8DC"/>
<path d="M46.8994 80.166C47.0618 80.166 47.1934 80.0344 47.1934 79.872C47.1934 79.7097 47.0618 79.5781 46.8994 79.5781C46.7371 79.5781 46.6055 79.7097 46.6055 79.872C46.6055 80.0344 46.7371 80.166 46.8994 80.166Z" fill="#1EA8DC"/>
<path d="M50.8135 80.166C50.9758 80.166 51.1074 80.0344 51.1074 79.8721C51.1074 79.7097 50.9758 79.5781 50.8135 79.5781C50.6511 79.5781 50.5195 79.7097 50.5195 79.8721C50.5195 80.0344 50.6511 80.166 50.8135 80.166Z" fill="#1EA8DC"/>
<path d="M54.7314 80.166C54.8938 80.166 55.0254 80.0344 55.0254 79.8721C55.0254 79.7097 54.8938 79.5781 54.7314 79.5781C54.5691 79.5781 54.4375 79.7097 54.4375 79.8721C54.4375 80.0344 54.5691 80.166 54.7314 80.166Z" fill="#1EA8DC"/>
<path d="M58.6494 80.166C58.8118 80.166 58.9434 80.0344 58.9434 79.872C58.9434 79.7097 58.8118 79.5781 58.6494 79.5781C58.4871 79.5781 58.3555 79.7097 58.3555 79.872C58.3555 80.0344 58.4871 80.166 58.6494 80.166Z" fill="#1EA8DC"/>
<path d="M62.4697 80.166C62.6321 80.166 62.7637 80.0344 62.7637 79.872C62.7637 79.7097 62.6321 79.5781 62.4697 79.5781C62.3074 79.5781 62.1758 79.7097 62.1758 79.872C62.1758 80.0344 62.3074 80.166 62.4697 80.166Z" fill="#1EA8DC"/>
<path d="M66.3955 80.166C66.5578 80.166 66.6894 80.0344 66.6894 79.872C66.6894 79.7097 66.5578 79.5781 66.3955 79.5781C66.2332 79.5781 66.1016 79.7097 66.1016 79.872C66.1016 80.0344 66.2332 80.166 66.3955 80.166Z" fill="#1EA8DC"/>
<path d="M70.3096 80.166C70.4719 80.166 70.6035 80.0344 70.6035 79.872C70.6035 79.7097 70.4719 79.5781 70.3096 79.5781C70.1472 79.5781 70.0156 79.7097 70.0156 79.872C70.0156 80.0344 70.1472 80.166 70.3096 80.166Z" fill="#1EA8DC"/>
<path d="M74.1376 80.166C74.2999 80.166 74.4315 80.0344 74.4315 79.872C74.4315 79.7097 74.2999 79.5781 74.1376 79.5781C73.9752 79.5781 73.8438 79.7097 73.8438 79.872C73.8438 80.0344 73.9752 80.166 74.1376 80.166Z" fill="#1EA8DC"/>
<path d="M78.0518 80.166C78.2141 80.166 78.3457 80.0344 78.3457 79.872C78.3457 79.7097 78.2141 79.5781 78.0518 79.5781C77.8894 79.5781 77.7578 79.7097 77.7578 79.872C77.7578 80.0344 77.8894 80.166 78.0518 80.166Z" fill="#1EA8DC"/>
<path d="M81.9697 80.166C82.1321 80.166 82.2637 80.0344 82.2637 79.8721C82.2637 79.7097 82.1321 79.5781 81.9697 79.5781C81.8074 79.5781 81.6758 79.7097 81.6758 79.8721C81.6758 80.0344 81.8074 80.166 81.9697 80.166Z" fill="#1EA8DC"/>
<path d="M85.8838 80.1655C86.0461 80.1655 86.1777 80.0339 86.1777 79.8715C86.1777 79.7092 86.0461 79.5776 85.8838 79.5776C85.7214 79.5776 85.5898 79.7092 85.5898 79.8715C85.5898 80.0339 85.7214 80.1655 85.8838 80.1655Z" fill="#1EA8DC"/>
<path d="M89.7119 80.1655C89.8743 80.1655 90.0059 80.0339 90.0059 79.8715C90.0059 79.7092 89.8743 79.5776 89.7119 79.5776C89.5496 79.5776 89.418 79.7092 89.418 79.8715C89.418 80.0339 89.5496 80.1655 89.7119 80.1655Z" fill="#1EA8DC"/>
<path d="M93.6299 80.166C93.7922 80.166 93.9238 80.0344 93.9238 79.872C93.9238 79.7097 93.7922 79.5781 93.6299 79.5781C93.4675 79.5781 93.3359 79.7097 93.3359 79.872C93.3359 80.0344 93.4675 80.166 93.6299 80.166Z" fill="#1EA8DC"/>
<path d="M97.5518 80.166C97.7141 80.166 97.8457 80.0344 97.8457 79.8721C97.8457 79.7097 97.7141 79.5781 97.5518 79.5781C97.3894 79.5781 97.2578 79.7097 97.2578 79.8721C97.2578 80.0344 97.3894 80.166 97.5518 80.166Z" fill="#1EA8DC"/>
<path d="M101.466 80.166C101.628 80.166 101.76 80.0344 101.76 79.872C101.76 79.7097 101.628 79.5781 101.466 79.5781C101.303 79.5781 101.172 79.7097 101.172 79.872C101.172 80.0344 101.303 80.166 101.466 80.166Z" fill="#1EA8DC"/>
<path d="M105.29 80.166C105.452 80.166 105.584 80.0344 105.584 79.872C105.584 79.7097 105.452 79.5781 105.29 79.5781C105.128 79.5781 104.996 79.7097 104.996 79.872C104.996 80.0344 105.128 80.166 105.29 80.166Z" fill="#1EA8DC"/>
<path d="M109.204 80.166C109.366 80.166 109.498 80.0344 109.498 79.872C109.498 79.7097 109.366 79.5781 109.204 79.5781C109.042 79.5781 108.91 79.7097 108.91 79.872C108.91 80.0344 109.042 80.166 109.204 80.166Z" fill="#1EA8DC"/>
<path d="M113.126 80.166C113.288 80.166 113.42 80.0344 113.42 79.872C113.42 79.7097 113.288 79.5781 113.126 79.5781C112.964 79.5781 112.832 79.7097 112.832 79.872C112.832 80.0344 112.964 80.166 113.126 80.166Z" fill="#1EA8DC"/>
<path d="M116.946 80.166C117.109 80.166 117.24 80.0344 117.24 79.872C117.24 79.7097 117.109 79.5781 116.946 79.5781C116.784 79.5781 116.652 79.7097 116.652 79.872C116.652 80.0344 116.784 80.166 116.946 80.166Z" fill="#1EA8DC"/>
<path d="M19.6611 84.0845C19.8235 84.0845 19.9551 83.9529 19.9551 83.7906C19.9551 83.6282 19.8235 83.4966 19.6611 83.4966C19.4988 83.4966 19.3672 83.6282 19.3672 83.7906C19.3672 83.9529 19.4988 84.0845 19.6611 84.0845Z" fill="#1EA8DC"/>
<path d="M23.583 84.0849C23.7453 84.0849 23.877 83.9533 23.877 83.791C23.877 83.6287 23.7453 83.4971 23.583 83.4971C23.4207 83.4971 23.2891 83.6287 23.2891 83.791C23.2891 83.9533 23.4207 84.0849 23.583 84.0849Z" fill="#1EA8DC"/>
<path d="M27.501 84.0845C27.6633 84.0845 27.7949 83.9529 27.7949 83.7906C27.7949 83.6282 27.6633 83.4966 27.501 83.4966C27.3386 83.4966 27.207 83.6282 27.207 83.7906C27.207 83.9529 27.3386 84.0845 27.501 84.0845Z" fill="#1EA8DC"/>
<path d="M31.3174 84.0849C31.4797 84.0849 31.6113 83.9533 31.6113 83.791C31.6113 83.6287 31.4797 83.4971 31.3174 83.4971C31.155 83.4971 31.0234 83.6287 31.0234 83.791C31.0234 83.9533 31.155 84.0849 31.3174 84.0849Z" fill="#1EA8DC"/>
<path d="M35.2393 84.0845C35.4016 84.0845 35.5332 83.9529 35.5332 83.7906C35.5332 83.6282 35.4016 83.4966 35.2393 83.4966C35.0769 83.4966 34.9453 83.6282 34.9453 83.7906C34.9453 83.9529 35.0769 84.0845 35.2393 84.0845Z" fill="#1EA8DC"/>
<path d="M39.1611 84.0849C39.3235 84.0849 39.4551 83.9533 39.4551 83.791C39.4551 83.6287 39.3235 83.4971 39.1611 83.4971C38.9988 83.4971 38.8672 83.6287 38.8672 83.791C38.8672 83.9533 38.9988 84.0849 39.1611 84.0849Z" fill="#1EA8DC"/>
<path d="M43.0791 84.0845C43.2414 84.0845 43.373 83.9529 43.373 83.7906C43.373 83.6282 43.2414 83.4966 43.0791 83.4966C42.9168 83.4966 42.7852 83.6282 42.7852 83.7906C42.7852 83.9529 42.9168 84.0845 43.0791 84.0845Z" fill="#1EA8DC"/>
<path d="M46.8994 84.0849C47.0618 84.0849 47.1934 83.9533 47.1934 83.791C47.1934 83.6287 47.0618 83.4971 46.8994 83.4971C46.7371 83.4971 46.6055 83.6287 46.6055 83.791C46.6055 83.9533 46.7371 84.0849 46.8994 84.0849Z" fill="#1EA8DC"/>
<path d="M50.8135 84.0845C50.9758 84.0845 51.1074 83.9529 51.1074 83.7906C51.1074 83.6282 50.9758 83.4966 50.8135 83.4966C50.6511 83.4966 50.5195 83.6282 50.5195 83.7906C50.5195 83.9529 50.6511 84.0845 50.8135 84.0845Z" fill="#1EA8DC"/>
<path d="M54.7314 84.0845C54.8938 84.0845 55.0254 83.9529 55.0254 83.7906C55.0254 83.6282 54.8938 83.4966 54.7314 83.4966C54.5691 83.4966 54.4375 83.6282 54.4375 83.7906C54.4375 83.9529 54.5691 84.0845 54.7314 84.0845Z" fill="#1EA8DC"/>
<path d="M58.6494 84.0849C58.8118 84.0849 58.9434 83.9533 58.9434 83.791C58.9434 83.6287 58.8118 83.4971 58.6494 83.4971C58.4871 83.4971 58.3555 83.6287 58.3555 83.791C58.3555 83.9533 58.4871 84.0849 58.6494 84.0849Z" fill="#1EA8DC"/>
<path d="M62.4697 84.0849C62.6321 84.0849 62.7637 83.9533 62.7637 83.791C62.7637 83.6287 62.6321 83.4971 62.4697 83.4971C62.3074 83.4971 62.1758 83.6287 62.1758 83.791C62.1758 83.9533 62.3074 84.0849 62.4697 84.0849Z" fill="#1EA8DC"/>
<path d="M66.3955 84.0849C66.5578 84.0849 66.6894 83.9533 66.6894 83.791C66.6894 83.6287 66.5578 83.4971 66.3955 83.4971C66.2332 83.4971 66.1016 83.6287 66.1016 83.791C66.1016 83.9533 66.2332 84.0849 66.3955 84.0849Z" fill="#1EA8DC"/>
<path d="M70.3096 84.0849C70.4719 84.0849 70.6035 83.9533 70.6035 83.791C70.6035 83.6287 70.4719 83.4971 70.3096 83.4971C70.1472 83.4971 70.0156 83.6287 70.0156 83.791C70.0156 83.9533 70.1472 84.0849 70.3096 84.0849Z" fill="#1EA8DC"/>
<path d="M74.1376 84.0849C74.2999 84.0849 74.4315 83.9533 74.4315 83.791C74.4315 83.6287 74.2999 83.4971 74.1376 83.4971C73.9752 83.4971 73.8438 83.6287 73.8438 83.791C73.8438 83.9533 73.9752 84.0849 74.1376 84.0849Z" fill="#1EA8DC"/>
<path d="M78.0518 84.0849C78.2141 84.0849 78.3457 83.9533 78.3457 83.791C78.3457 83.6287 78.2141 83.4971 78.0518 83.4971C77.8894 83.4971 77.7578 83.6287 77.7578 83.791C77.7578 83.9533 77.8894 84.0849 78.0518 84.0849Z" fill="#1EA8DC"/>
<path d="M81.9697 84.0845C82.1321 84.0845 82.2637 83.9529 82.2637 83.7906C82.2637 83.6282 82.1321 83.4966 81.9697 83.4966C81.8074 83.4966 81.6758 83.6282 81.6758 83.7906C81.6758 83.9529 81.8074 84.0845 81.9697 84.0845Z" fill="#1EA8DC"/>
<path d="M85.8838 84.0845C86.0461 84.0845 86.1777 83.9529 86.1777 83.7906C86.1777 83.6282 86.0461 83.4966 85.8838 83.4966C85.7214 83.4966 85.5898 83.6282 85.5898 83.7906C85.5898 83.9529 85.7214 84.0845 85.8838 84.0845Z" fill="#1EA8DC"/>
<path d="M89.7119 84.0845C89.8743 84.0845 90.0059 83.9529 90.0059 83.7906C90.0059 83.6282 89.8743 83.4966 89.7119 83.4966C89.5496 83.4966 89.418 83.6282 89.418 83.7906C89.418 83.9529 89.5496 84.0845 89.7119 84.0845Z" fill="#1EA8DC"/>
<path d="M93.6299 84.0849C93.7922 84.0849 93.9238 83.9533 93.9238 83.791C93.9238 83.6287 93.7922 83.4971 93.6299 83.4971C93.4675 83.4971 93.3359 83.6287 93.3359 83.791C93.3359 83.9533 93.4675 84.0849 93.6299 84.0849Z" fill="#1EA8DC"/>
<path d="M97.5518 84.0845C97.7141 84.0845 97.8457 83.9529 97.8457 83.7906C97.8457 83.6282 97.7141 83.4966 97.5518 83.4966C97.3894 83.4966 97.2578 83.6282 97.2578 83.7906C97.2578 83.9529 97.3894 84.0845 97.5518 84.0845Z" fill="#1EA8DC"/>
<path d="M101.466 84.0849C101.628 84.0849 101.76 83.9533 101.76 83.791C101.76 83.6287 101.628 83.4971 101.466 83.4971C101.303 83.4971 101.172 83.6287 101.172 83.791C101.172 83.9533 101.303 84.0849 101.466 84.0849Z" fill="#1EA8DC"/>
<path d="M105.29 84.0849C105.452 84.0849 105.584 83.9533 105.584 83.791C105.584 83.6287 105.452 83.4971 105.29 83.4971C105.128 83.4971 104.996 83.6287 104.996 83.791C104.996 83.9533 105.128 84.0849 105.29 84.0849Z" fill="#1EA8DC"/>
<path d="M109.204 84.0849C109.366 84.0849 109.498 83.9533 109.498 83.791C109.498 83.6287 109.366 83.4971 109.204 83.4971C109.042 83.4971 108.91 83.6287 108.91 83.791C108.91 83.9533 109.042 84.0849 109.204 84.0849Z" fill="#1EA8DC"/>
<path d="M113.126 84.0844C113.288 84.0844 113.42 83.9528 113.42 83.7905C113.42 83.6282 113.288 83.4966 113.126 83.4966C112.964 83.4966 112.832 83.6282 112.832 83.7905C112.832 83.9528 112.964 84.0844 113.126 84.0844Z" fill="#1EA8DC"/>
<path d="M116.946 84.0849C117.109 84.0849 117.24 83.9533 117.24 83.791C117.24 83.6287 117.109 83.4971 116.946 83.4971C116.784 83.4971 116.652 83.6287 116.652 83.791C116.652 83.9533 116.784 84.0849 116.946 84.0849Z" fill="#1EA8DC"/>
</g>
</g>
<path d="M120.77 82.5161C120.77 82.5161 120.966 86.5334 116.949 86.6313H121.652V82.8101L120.77 82.5161Z" fill="#1EA8DC"/>
<path fill-rule="evenodd" clip-rule="evenodd" d="M62.1048 23.4702C59.3312 22.5319 56.6756 25.1601 57.5864 27.9426L59.0527 32.4294C59.2905 33.1559 59.2876 33.9398 59.0445 34.6645L57.5384 39.1534C56.6063 41.9318 59.2482 44.5819 62.0293 43.658L66.549 42.1567C67.2701 41.9173 68.0488 41.9151 68.7712 42.1506L73.2594 43.6141C76.0405 44.5208 78.6645 41.8687 77.7297 39.0979L76.2496 34.7084C76.0025 33.9757 76.001 33.1823 76.2455 32.4486L77.7427 27.9549C78.6693 25.1738 76.0213 22.5299 73.2415 23.4599L68.763 24.9591C68.0268 25.2056 67.2302 25.2044 66.4949 24.9557L62.1048 23.4702ZM67.6347 38.925C69.0608 38.925 70.4285 38.3585 71.4369 37.3501C72.4453 36.3417 73.0118 34.9741 73.0118 33.548C73.0118 32.1219 72.4453 30.7542 71.4369 29.7459C70.4285 28.7375 69.0608 28.171 67.6347 28.171C66.2087 28.171 64.841 28.7375 63.8326 29.7459C62.8242 30.7542 62.2577 32.1219 62.2577 33.548C62.2577 34.9741 62.8242 36.3417 63.8326 37.3501C64.841 38.3585 66.2087 38.925 67.6347 38.925Z" fill="#1CA8DD"/>
<path d="M66.0389 35.1461C66.2481 35.3552 66.4964 35.5211 66.7698 35.6343C67.0431 35.7475 67.336 35.8057 67.6318 35.8057C67.9277 35.8057 68.2206 35.7474 68.4939 35.6341C68.7672 35.5209 69.0155 35.3549 69.2247 35.1457C69.4338 34.9365 69.5997 34.6882 69.7129 34.4148C69.8261 34.1415 69.8843 33.8486 69.8843 33.5527C69.8843 33.2569 69.826 32.964 69.7127 32.6907C69.5995 32.4174 69.4335 32.1691 69.2243 31.9599C68.8018 31.5375 68.2288 31.3002 67.6314 31.3003C67.0339 31.3004 66.461 31.5378 66.0385 31.9603C65.6161 32.3828 65.3788 32.9558 65.3789 33.5532C65.379 34.1507 65.6164 34.7236 66.0389 35.1461Z" fill="#1CA8DD"/>
<path d="M33.1891 61.8408L32.3501 64H30.7708L34.5216 54.8698H35.8418L39.5309 64H37.9516L37.0879 61.8408H33.1891ZM36.6931 60.6687L35.1262 56.5601L33.5839 60.6687H36.6931ZM40.5005 64V54.8698H41.9564V64H40.5005ZM46.8999 61.2979H48.3434C48.4421 62.6675 49.4045 62.9389 49.8857 62.9389C50.7 62.9389 51.4033 62.2973 51.4033 61.483C51.4033 60.4713 50.5396 60.2369 49.3675 59.805C48.6519 59.5706 47.0603 59.0401 47.0603 57.325C47.0479 55.6224 48.5038 54.697 49.9351 54.697C51.1072 54.697 52.5754 55.3386 52.6865 57.214H51.2552C51.1565 56.7205 50.9345 55.9308 49.8857 55.9308C49.1454 55.9308 48.5038 56.4367 48.5038 57.214C48.5038 58.1024 49.1824 58.3244 50.6507 58.8673C51.7858 59.3485 52.8469 59.9284 52.8469 61.409C52.8469 62.8896 51.8475 64.1727 49.898 64.1727C48.0843 64.1727 46.9245 63.0623 46.8999 61.2979ZM60.6428 61.0512H54.9055C54.9672 62.4084 56.1517 63.0993 57.1634 63.0993C58.0641 63.0993 58.7303 62.6675 59.1005 61.9642H60.433C60.1122 62.7045 59.6434 63.2597 59.0758 63.6299C58.5083 64.0123 57.842 64.1974 57.1634 64.1974C54.9672 64.1974 53.61 62.4331 53.61 60.6564C53.61 58.7316 55.1153 57.0906 57.1511 57.0906C58.1134 57.0906 58.9894 57.4484 59.631 58.0777C60.4207 58.8797 60.7538 59.9284 60.6428 61.0512ZM54.9302 60.0518H59.3719C59.3102 59.1634 58.4219 58.164 57.1511 58.1887C55.8432 58.1887 54.9919 59.1388 54.9302 60.0518ZM67.1917 61.6434H68.5119C68.1048 63.0993 66.7846 64.1974 65.1066 64.1974C62.9104 64.1974 61.5162 62.5071 61.5162 60.644C61.5162 58.6576 63.0338 57.0906 65.0449 57.0906C66.6488 57.0906 68.0924 58.0777 68.5119 59.694H67.1917C66.8463 58.7933 66.0073 58.2874 65.0942 58.2874C64.4156 58.2751 63.9221 58.4972 63.4533 58.9413C63.0584 59.3362 62.7993 59.9654 62.7993 60.644C62.7993 62.0259 63.8111 63.0006 65.0942 63.0006C66.217 62.9883 66.9203 62.3097 67.1917 61.6434ZM75.936 57.288V64H74.7269V62.9636C74.4061 63.6545 73.6535 64.2097 72.4567 64.1974C70.2975 64.1851 69.7423 62.6181 69.7423 61.2239V57.288H71.0254V60.9278C71.0254 62.1369 71.4943 63.0006 72.8145 63.0006C74.073 62.9883 74.6529 62.1863 74.6529 61.0388V57.288H75.936ZM77.6105 64V57.288H78.8197V58.2751C79.2022 57.4854 79.9054 57.103 80.8185 57.0906V58.3738H80.7321C79.523 58.3738 78.8937 59.0401 78.8937 60.3726V64H77.6105ZM81.8277 56.227V54.8698H83.1109V56.227H81.8277ZM81.8277 64V57.288H83.1109V64H81.8277ZM85.2729 64V58.2874H84.0638V57.288H85.2729V54.8698H86.5561V57.288H87.8516V58.2874H86.5561V64H85.2729ZM89.4947 66.443L90.6051 63.8026L88.0388 57.288H89.4207L91.2714 62.1986L93.1468 57.288H94.5287L90.8642 66.443H89.4947ZM105.314 58.4602H106.671L105.104 61.4337L106.93 63.2967L106.042 64.1604L104.413 62.4824C103.92 63.4324 103.217 64.1727 101.748 64.1727C99.947 64.1727 98.8242 62.9513 98.8242 61.5694C98.8242 60.1011 100.033 59.3362 100.848 58.9043C100.231 58.2504 99.8236 57.6582 99.7989 56.8685C99.7989 55.6717 100.786 54.697 102.057 54.697C103.34 54.697 104.29 55.6717 104.29 56.8315C104.29 58.053 103.352 58.5959 102.661 58.966L104.241 60.57L105.314 58.4602ZM102.069 55.7828H102.057C101.465 55.7828 101.07 56.264 101.07 56.7945C101.07 57.4238 101.551 57.8556 101.909 58.2381C102.661 57.8186 103.106 57.5101 103.106 56.8192C103.106 56.2763 102.698 55.7828 102.069 55.7828ZM103.55 61.6434L101.65 59.7063C100.638 60.2122 100.231 60.7921 100.231 61.4583C100.231 62.2727 100.885 62.9389 101.798 62.9389C102.711 62.9389 103.143 62.4331 103.55 61.6434ZM40.3931 72.4608H38.7521C38.5177 72.1276 38.2339 71.8315 37.9131 71.5971C37.3826 71.2146 36.741 70.9802 35.9884 70.9802C34.261 70.9802 32.6447 72.288 32.6447 74.4102C32.6447 76.6064 34.2734 77.8896 35.9884 77.8896C36.8274 77.8896 37.5553 77.6305 38.0982 77.211C38.6534 76.7915 39.0359 76.2116 39.1716 75.5823H35.2358V74.3979H40.862C40.862 74.9778 40.7633 75.7674 40.4548 76.446C39.6158 78.2597 37.7281 79.1727 36.0007 79.1727C33.2987 79.1727 31.2012 77.0876 31.2012 74.4102C31.2012 71.6835 33.3604 69.697 36.0131 69.697C37.9748 69.697 39.7392 70.8815 40.3931 72.4608ZM41.7197 75.644V75.6317C41.7197 73.8426 43.0398 72.0906 45.2977 72.0906C47.5556 72.0906 48.8758 73.8426 48.8758 75.644C48.8758 77.4454 47.5556 79.1851 45.2977 79.1851C43.0398 79.1851 41.7197 77.4454 41.7197 75.644ZM43.0028 75.644V75.6564C43.0028 76.9889 44.0146 77.9883 45.2977 77.9883C46.5809 77.9883 47.5926 76.9889 47.5926 75.644C47.5926 74.2992 46.5809 73.2998 45.2977 73.2998C44.0146 73.2998 43.0028 74.2992 43.0028 75.644ZM55.5502 72.288L52.9838 79H51.7007L49.1343 72.288H50.4792L52.3423 77.396L54.2053 72.288H55.5502ZM62.7393 76.0512H57.002C57.0637 77.4084 58.2482 78.0993 59.2599 78.0993C60.1606 78.0993 60.8269 77.6675 61.197 76.9642H62.5295C62.2087 77.7045 61.7399 78.2597 61.1723 78.6299C60.6048 79.0123 59.9385 79.1974 59.2599 79.1974C57.0637 79.1974 55.7065 77.4331 55.7065 75.6564C55.7065 73.7316 57.2118 72.0906 59.2476 72.0906C60.21 72.0906 61.086 72.4484 61.7276 73.0777C62.5172 73.8797 62.8503 74.9284 62.7393 76.0512ZM57.0267 75.0518H61.4685C61.4068 74.1634 60.5184 73.164 59.2476 73.1887C57.9397 73.1887 57.0884 74.1388 57.0267 75.0518ZM63.9952 79V72.288H65.2043V73.2751C65.5868 72.4854 66.2901 72.103 67.2031 72.0906V73.3738H67.1167C65.9076 73.3738 65.2783 74.0401 65.2783 75.3726V79H63.9952ZM68.2123 79V72.288H69.4215V73.3244C69.7423 72.6335 70.4949 72.0783 71.6917 72.0906C73.8385 72.1153 74.4061 73.6699 74.4061 75.0641V79H73.1106V75.3602C73.1106 74.1511 72.6417 73.2874 71.3339 73.2998C70.0754 73.3121 69.4955 74.1017 69.4955 75.2615V79H68.2123ZM82.8916 72.288V79H81.6084V77.8279C81.1395 78.7286 80.1772 79.1974 79.1161 79.1974C76.9569 79.1974 75.6737 77.5194 75.6737 75.644C75.6737 73.5959 77.1667 72.0906 79.1161 72.0906C80.4486 72.0906 81.2999 72.8309 81.6084 73.4725V72.288H82.8916ZM76.9569 75.6564V75.6687C76.9692 76.6681 77.6725 78.0006 79.3012 78.0006C80.3252 78.0006 81.0532 77.4331 81.3863 76.6681C81.5344 76.3596 81.6084 76.0142 81.6207 75.6687C81.6331 75.3232 81.5714 74.9778 81.4233 74.6693C81.1025 73.892 80.3499 73.2874 79.2765 73.2874C77.8699 73.2874 76.9569 74.3979 76.9569 75.6564ZM84.5869 79V72.288H85.7961V73.3244C86.1168 72.6335 86.8695 72.0783 88.0663 72.0906C90.2131 72.1153 90.7807 73.6699 90.7807 75.0641V79H89.4852V75.3602C89.4852 74.1511 89.0163 73.2874 87.7085 73.2998C86.45 73.3121 85.8701 74.1017 85.8701 75.2615V79H84.5869ZM97.7239 76.6434H99.0441C98.6369 78.0993 97.3167 79.1974 95.6387 79.1974C93.4425 79.1974 92.0483 77.5071 92.0483 75.644C92.0483 73.6576 93.5659 72.0906 95.577 72.0906C97.181 72.0906 98.6246 73.0777 99.0441 74.694H97.7239C97.3784 73.7933 96.5394 73.2874 95.6264 73.2874C94.9478 73.2751 94.4543 73.4972 93.9854 73.9413C93.5906 74.3362 93.3315 74.9654 93.3315 75.644C93.3315 77.0259 94.3432 78.0006 95.6264 78.0006C96.7492 77.9883 97.4524 77.3097 97.7239 76.6434ZM106.851 76.0512H101.113C101.175 77.4084 102.36 78.0993 103.371 78.0993C104.272 78.0993 104.938 77.6675 105.308 76.9642H106.641C106.32 77.7045 105.851 78.2597 105.284 78.6299C104.716 79.0123 104.05 79.1974 103.371 79.1974C101.175 79.1974 99.8179 77.4331 99.8179 75.6564C99.8179 73.7316 101.323 72.0906 103.359 72.0906C104.321 72.0906 105.197 72.4484 105.839 73.0777C106.629 73.8797 106.962 74.9284 106.851 76.0512ZM101.138 75.0518H105.58C105.518 74.1634 104.63 73.164 103.359 73.1887C102.051 73.1887 101.2 74.1388 101.138 75.0518Z" fill="#1E2229"/>
<defs>
<linearGradient id="paint0_linear_2348_1812" x1="67.444" y1="148.927" x2="67.444" y2="37.9131" gradientUnits="userSpaceOnUse">
<stop stop-color="#CDE4ED"/>
<stop offset="1" stop-color="#CDE4ED" stop-opacity="0"/>
</linearGradient>
<linearGradient id="paint1_linear_2348_1812" x1="71.3958" y1="102.24" x2="72.5132" y2="51.2978" gradientUnits="userSpaceOnUse">
<stop stop-color="#C4C4C4"/>
<stop offset="1" stop-color="#C4C4C4" stop-opacity="0"/>
</linearGradient>
<linearGradient id="paint2_linear_2348_1812" x1="76.8134" y1="111.646" x2="67.944" y2="60.1193" gradientUnits="userSpaceOnUse">
<stop stop-color="white"/>
<stop offset="1"/>
</linearGradient>
</defs>
</svg>
